{
	"asset":{
		"version":"2.0",
		"generator":"Houdini GLTF 2.0 Exporter"
	},
	"accessors":[
		{
			"bufferView":0,
			"componentType":5125,
			"count":165720,
			"type":"SCALAR",
			"min":[0
			],
			"max":[165719
			]
		},
		{
			"bufferView":1,
			"componentType":5126,
			"count":165720,
			"type":"VEC3",
			"min":[-10.8821697,-2.4049859,-26.1948318
			],
			"max":[-0.467945576,1.5328896,-21.4311371
			]
		},
		{
			"bufferView":2,
			"componentType":5126,
			"count":165720,
			"type":"VEC2",
			"min":[0,0
			],
			"max":[1,1
			]
		},
		{
			"bufferView":3,
			"componentType":5126,
			"count":165720,
			"type":"VEC3",
			"min":[-0.999699533,-0.99997133,-0.99997735
			],
			"max":[0.999796271,0.999993861,0.999988198
			]
		},
		{
			"bufferView":4,
			"componentType":5123,
			"count":3744,
			"type":"SCALAR",
			"min":[0
			],
			"max":[3743
			]
		},
		{
			"bufferView":5,
			"componentType":5126,
			"count":3744,
			"type":"VEC3",
			"min":[-10.6211815,0.0223351717,-22.1254005
			],
			"max":[-10.318759,0.393779188,-21.7887306
			]
		},
		{
			"bufferView":6,
			"componentType":5126,
			"count":3744,
			"type":"VEC2",
			"min":[0.00194999995,0.00195997953
			],
			"max":[0.993669987,0.998049974
			]
		},
		{
			"bufferView":7,
			"componentType":5126,
			"count":3744,
			"type":"VEC3",
			"min":[-0.986420572,-0.97326982,-0.997269332
			],
			"max":[0.9950791,0.968762815,0.99480021
			]
		}
	],
	"buffers":[
		{
			"uri":"biever_wip_mat_anim_data.bin",
			"byteLength":6093216,
			"name":"main_buffer"
		}
	],
	"bufferViews":[
		{
			"buffer":0,
			"byteLength":662880,
			"target":34963
		},
		{
			"buffer":0,
			"byteOffset":662880,
			"byteLength":1988640,
			"target":34962
		},
		{
			"buffer":0,
			"byteOffset":2651520,
			"byteLength":1325760,
			"target":34962
		},
		{
			"buffer":0,
			"byteOffset":3977280,
			"byteLength":1988640,
			"target":34962
		},
		{
			"buffer":0,
			"byteOffset":5965920,
			"byteLength":7488,
			"target":34963
		},
		{
			"buffer":0,
			"byteOffset":5973408,
			"byteLength":44928,
			"target":34962
		},
		{
			"buffer":0,
			"byteOffset":6018336,
			"byteLength":29952,
			"target":34962
		},
		{
			"buffer":0,
			"byteOffset":6048288,
			"byteLength":44928,
			"target":34962
		}
	],
	"nodes":[
		{
			"name":"biever_wip",
			"mesh":0
		},
		{
			"name":"curve_object1"
		},
		{
			"name":"biever"
		},
		{
			"name":"curve_object2"
		}
	],
	"meshes":[
		{
			"primitives":[
				{
					"attributes":{
						"NORMAL":3,
						"TEXCOORD_0":2,
						"POSITION":1
					},
					"indices":0,
					"material":0
				},
				{
					"attributes":{
						"NORMAL":7,
						"TEXCOORD_0":6,
						"POSITION":5
					},
					"indices":4,
					"material":1
				}
			]
		}
	],
	"materials":[
		{
			"name":"body",
			"pbrMetallicRoughness":{
				"baseColorFactor":[0.200000003,0.200000003,0.200000003,1
				],
				"metallicFactor":0,
				"roughnessFactor":0.300000012,
				"baseColorTexture":{
					"index":0
				}
			}
		},
		{
			"name":"teeth",
			"pbrMetallicRoughness":{
				"baseColorFactor":[0.200000003,0.200000003,0.200000003,1
				],
				"metallicFactor":0,
				"roughnessFactor":0.300000012,
				"baseColorTexture":{
					"index":1
				}
			}
		}
	],
	"scenes":[
		{
			"nodes":[0
			]
		}
	],
	"textures":[
		{
			"source":0
		},
		{
			"source":1
		}
	],
	"images":[
		{
			"uri":"Turbosquid_Body_Texture_01.png",
			"mimeType":"image/png"
		},
		{
			"uri":"Texture_Teeth.png",
			"mimeType":"image/png"
		}
	],
	"scene":0
}
