{
    "asset" : {
        "generator" : "Khronos glTF Blender I/O v1.2.75",
        "version" : "2.0"
    },
    "scene" : 0,
    "scenes" : [
        {
            "name" : "Scene",
            "nodes" : [
                0,
                1,
                2
            ]
        }
    ],
    "nodes" : [
        {
            "name" : "Light",
            "rotation" : [
                0.16907575726509094,
                0.7558803558349609,
                -0.27217137813568115,
                0.570947527885437
            ],
            "translation" : [
                4.076245307922363,
                5.903861999511719,
                -1.0054539442062378
            ]
        },
        {
            "name" : "Camera",
            "rotation" : [
                0.483536034822464,
                0.33687159419059753,
                -0.20870360732078552,
                0.7804827094078064
            ],
            "translation" : [
                7.358891487121582,
                4.958309173583984,
                6.925790786743164
            ]
        },
        {
            "mesh" : 0,
            "name" : "blendshapes1",
            "rotation" : [
                0.7071068286895752,
                0,
                0,
                0.7071067094802856
            ],
            "scale" : [
                0.009999999776482582,
                0.009999999776482582,
                0.009999999776482582
            ]
        }
    ],
    "animations" : [
        {
            "channels" : [
                {
                    "sampler" : 0,
                    "target" : {
                        "node" : 2,
                        "path" : "weights"
                    }
                }
            ],
            "name" : "Key|Main|Base Layer",
            "samplers" : [
                {
                    "input" : 12,
                    "interpolation" : "LINEAR",
                    "output" : 13
                }
            ]
        }
    ],
    "materials" : [
        {
            "doubleSided" : true,
            "emissiveFactor" : [
                0,
                0,
                0
            ],
            "name" : "body",
            "pbrMetallicRoughness" : {
                "metallicFactor" : 1,
                "roughnessFactor" : 0.5527864098548889
            }
        },
        {
            "doubleSided" : true,
            "emissiveFactor" : [
                0,
                0,
                0
            ],
            "name" : "teeth",
            "pbrMetallicRoughness" : {
                "metallicFactor" : 1,
                "roughnessFactor" : 0.5527864098548889
            }
        }
    ],
    "meshes" : [
        {
            "extras" : {
                "targetNames" : [
                    "timeshift1"
                ]
            },
            "name" : "blendshapes1",
            "primitives" : [
                {
                    "attributes" : {
                        "POSITION" : 0,
                        "NORMAL" : 1,
                        "TEXCOORD_0" : 2
                    },
                    "indices" : 3,
                    "material" : 0,
                    "targets" : [
                        {
                            "POSITION" : 4,
                            "NORMAL" : 5
                        }
                    ]
                },
                {
                    "attributes" : {
                        "POSITION" : 6,
                        "NORMAL" : 7,
                        "TEXCOORD_0" : 8
                    },
                    "indices" : 9,
                    "material" : 1,
                    "targets" : [
                        {
                            "POSITION" : 10,
                            "NORMAL" : 11
                        }
                    ]
                }
            ],
            "weights" : [
                0
            ]
        }
    ],
    "accessors" : [
        {
            "bufferView" : 0,
            "componentType" : 5126,
            "count" : 29285,
            "max" : [
                -0.46794557571411133,
                -21.431137084960938,
                2.4049859046936035
            ],
            "min" : [
                -10.882169723510742,
                -26.19483184814453,
                -1.5328896045684814
            ],
            "type" : "VEC3"
        },
        {
            "bufferView" : 1,
            "componentType" : 5126,
            "count" : 29285,
            "type" : "VEC3"
        },
        {
            "bufferView" : 2,
            "componentType" : 5126,
            "count" : 29285,
            "type" : "VEC2"
        },
        {
            "bufferView" : 3,
            "componentType" : 5123,
            "count" : 165720,
            "type" : "SCALAR"
        },
        {
            "bufferView" : 4,
            "componentType" : 5126,
            "count" : 29285,
            "max" : [
                2.128572940826416,
                -0.2865447998046875,
                0.33714136481285095
            ],
            "min" : [
                1.888443946838379,
                -0.6667060852050781,
                -0.5766534805297852
            ],
            "type" : "VEC3"
        },
        {
            "bufferView" : 5,
            "componentType" : 5126,
            "count" : 29285,
            "type" : "VEC3"
        },
        {
            "bufferView" : 6,
            "componentType" : 5126,
            "count" : 714,
            "max" : [
                -10.318758964538574,
                -21.78873062133789,
                -0.022335171699523926
            ],
            "min" : [
                -10.62118148803711,
                -22.12540054321289,
                -0.3937791883945465
            ],
            "type" : "VEC3"
        },
        {
            "bufferView" : 7,
            "componentType" : 5126,
            "count" : 714,
            "type" : "VEC3"
        },
        {
            "bufferView" : 8,
            "componentType" : 5126,
            "count" : 714,
            "type" : "VEC2"
        },
        {
            "bufferView" : 9,
            "componentType" : 5123,
            "count" : 3744,
            "type" : "SCALAR"
        },
        {
            "bufferView" : 10,
            "componentType" : 5126,
            "count" : 714,
            "max" : [
                2.111393928527832,
                -0.29059600830078125,
                -0.2152579426765442
            ],
            "min" : [
                2.104463577270508,
                -0.2958965301513672,
                -0.23286062479019165
            ],
            "type" : "VEC3"
        },
        {
            "bufferView" : 11,
            "componentType" : 5126,
            "count" : 714,
            "type" : "VEC3"
        },
        {
            "bufferView" : 12,
            "componentType" : 5126,
            "count" : 240,
            "max" : [
                10.041666666666666
            ],
            "min" : [
                0.08333333333333333
            ],
            "type" : "SCALAR"
        },
        {
            "bufferView" : 13,
            "componentType" : 5126,
            "count" : 240,
            "type" : "SCALAR"
        }
    ],
    "bufferViews" : [
        {
            "buffer" : 0,
            "byteLength" : 351420,
            "byteOffset" : 0
        },
        {
            "buffer" : 0,
            "byteLength" : 351420,
            "byteOffset" : 351420
        },
        {
            "buffer" : 0,
            "byteLength" : 234280,
            "byteOffset" : 702840
        },
        {
            "buffer" : 0,
            "byteLength" : 331440,
            "byteOffset" : 937120
        },
        {
            "buffer" : 0,
            "byteLength" : 351420,
            "byteOffset" : 1268560
        },
        {
            "buffer" : 0,
            "byteLength" : 351420,
            "byteOffset" : 1619980
        },
        {
            "buffer" : 0,
            "byteLength" : 8568,
            "byteOffset" : 1971400
        },
        {
            "buffer" : 0,
            "byteLength" : 8568,
            "byteOffset" : 1979968
        },
        {
            "buffer" : 0,
            "byteLength" : 5712,
            "byteOffset" : 1988536
        },
        {
            "buffer" : 0,
            "byteLength" : 7488,
            "byteOffset" : 1994248
        },
        {
            "buffer" : 0,
            "byteLength" : 8568,
            "byteOffset" : 2001736
        },
        {
            "buffer" : 0,
            "byteLength" : 8568,
            "byteOffset" : 2010304
        },
        {
            "buffer" : 0,
            "byteLength" : 960,
            "byteOffset" : 2018872
        },
        {
            "buffer" : 0,
            "byteLength" : 960,
            "byteOffset" : 2019832
        }
    ],
    "buffers" : [
        {
            "byteLength" : 2020792,
            "uri" : "scene.bin"
        }
    ],
    "images":[
		{
			"uri":"Turbosquid_Body_Texture_01.png",
			"mimeType":"image/png"
		},
		{
			"uri":"Texture_Teeth.png",
			"mimeType":"image/png"
		}
	]
}
