{
    "asset" : {
        "generator" : "Khronos glTF Blender I/O v1.2.75",
        "version" : "2.0"
    },
    "scene" : 0,
    "scenes" : [
        {
            "name" : "Scene",
            "nodes" : [
                0,
                1,
                2
            ]
        }
    ],
    "nodes" : [
        {
            "name" : "Light",
            "rotation" : [
                0.16907575726509094,
                0.7558803558349609,
                -0.27217137813568115,
                0.570947527885437
            ],
            "translation" : [
                4.076245307922363,
                5.903861999511719,
                -1.0054539442062378
            ]
        },
        {
            "name" : "Camera",
            "rotation" : [
                0.483536034822464,
                0.33687159419059753,
                -0.20870360732078552,
                0.7804827094078064
            ],
            "translation" : [
                7.358891487121582,
                4.958309173583984,
                6.925790786743164
            ]
        },
        {
            "mesh" : 0,
            "name" : "biever",
            "rotation" : [
                0.7071068286895752,
                0,
                0,
                0.7071067094802856
            ],
            "scale" : [
                0.009999999776482582,
                0.009999999776482582,
                0.009999999776482582
            ]
        }
    ],
    "materials" : [
        {
            "doubleSided" : true,
            "emissiveFactor" : [
                0,
                0,
                0
            ],
            "name" : "/mat/lambert3SG",
            "pbrMetallicRoughness" : {
                "baseColorFactor" : [
                    0.7568627595901489,
                    0.7568627595901489,
                    0.7568627595901489,
                    1
                ],
                "metallicFactor" : 0,
                "roughnessFactor" : 0.5527864098548889
            }
        },
        {
            "doubleSided" : true,
            "emissiveFactor" : [
                0,
                0,
                0
            ],
            "name" : "/mat/lambert4SG",
            "pbrMetallicRoughness" : {
                "baseColorFactor" : [
                    0.7568627595901489,
                    0.7568627595901489,
                    0.7568627595901489,
                    1
                ],
                "metallicFactor" : 0,
                "roughnessFactor" : 0.5527864098548889
            }
        },
        {
            "doubleSided" : true,
            "emissiveFactor" : [
                0,
                0,
                0
            ],
            "name" : "/mat/phong1SG",
            "pbrMetallicRoughness" : {
                "baseColorFactor" : [
                    0.7568627595901489,
                    0.7568627595901489,
                    0.7568627595901489,
                    1
                ],
                "metallicFactor" : 0,
                "roughnessFactor" : 0.5527864098548889
            }
        }
    ],
    "meshes" : [
        {
            "name" : "biever",
            "primitives" : [
                {
                    "attributes" : {
                        "POSITION" : 0,
                        "NORMAL" : 1,
                        "TEXCOORD_0" : 2
                    },
                    "indices" : 3,
                    "material" : 0
                },
                {
                    "attributes" : {
                        "POSITION" : 4,
                        "NORMAL" : 5,
                        "TEXCOORD_0" : 6
                    },
                    "indices" : 7,
                    "material" : 1
                },
                {
                    "attributes" : {
                        "POSITION" : 8,
                        "NORMAL" : 9,
                        "TEXCOORD_0" : 10
                    },
                    "indices" : 11,
                    "material" : 2
                }
            ]
        }
    ],
    "accessors" : [
        {
            "bufferView" : 0,
            "componentType" : 5126,
            "count" : 25146,
            "max" : [
                2.031637668609619,
                3.841458797454834,
                0.05020918697118759
            ],
            "min" : [
                -2.03163743019104,
                -6.815154075622559,
                -3.7446486949920654
            ],
            "type" : "VEC3"
        },
        {
            "bufferView" : 1,
            "componentType" : 5126,
            "count" : 25146,
            "type" : "VEC3"
        },
        {
            "bufferView" : 2,
            "componentType" : 5126,
            "count" : 25146,
            "type" : "VEC2"
        },
        {
            "bufferView" : 3,
            "componentType" : 5123,
            "count" : 147000,
            "type" : "SCALAR"
        },
        {
            "bufferView" : 4,
            "componentType" : 5126,
            "count" : 694,
            "max" : [
                0.1603182554244995,
                3.6097614765167236,
                -1.783231496810913
            ],
            "min" : [
                -0.1664888560771942,
                3.4539942741394043,
                -2.164243459701538
            ],
            "type" : "VEC3"
        },
        {
            "bufferView" : 5,
            "componentType" : 5126,
            "count" : 694,
            "type" : "VEC3"
        },
        {
            "bufferView" : 6,
            "componentType" : 5126,
            "count" : 694,
            "type" : "VEC2"
        },
        {
            "bufferView" : 7,
            "componentType" : 5123,
            "count" : 3744,
            "type" : "SCALAR"
        },
        {
            "bufferView" : 8,
            "componentType" : 5126,
            "count" : 3354,
            "max" : [
                0.5680648684501648,
                3.1882290840148926,
                -2.57572603225708
            ],
            "min" : [
                -0.5680648684501648,
                3.014069080352783,
                -2.7484047412872314
            ],
            "type" : "VEC3"
        },
        {
            "bufferView" : 9,
            "componentType" : 5126,
            "count" : 3354,
            "type" : "VEC3"
        },
        {
            "bufferView" : 10,
            "componentType" : 5126,
            "count" : 3354,
            "type" : "VEC2"
        },
        {
            "bufferView" : 11,
            "componentType" : 5123,
            "count" : 18720,
            "type" : "SCALAR"
        }
    ],
    "bufferViews" : [
        {
            "buffer" : 0,
            "byteLength" : 301752,
            "byteOffset" : 0
        },
        {
            "buffer" : 0,
            "byteLength" : 301752,
            "byteOffset" : 301752
        },
        {
            "buffer" : 0,
            "byteLength" : 201168,
            "byteOffset" : 603504
        },
        {
            "buffer" : 0,
            "byteLength" : 294000,
            "byteOffset" : 804672
        },
        {
            "buffer" : 0,
            "byteLength" : 8328,
            "byteOffset" : 1098672
        },
        {
            "buffer" : 0,
            "byteLength" : 8328,
            "byteOffset" : 1107000
        },
        {
            "buffer" : 0,
            "byteLength" : 5552,
            "byteOffset" : 1115328
        },
        {
            "buffer" : 0,
            "byteLength" : 7488,
            "byteOffset" : 1120880
        },
        {
            "buffer" : 0,
            "byteLength" : 40248,
            "byteOffset" : 1128368
        },
        {
            "buffer" : 0,
            "byteLength" : 40248,
            "byteOffset" : 1168616
        },
        {
            "buffer" : 0,
            "byteLength" : 26832,
            "byteOffset" : 1208864
        },
        {
            "buffer" : 0,
            "byteLength" : 37440,
            "byteOffset" : 1235696
        }
    ],
    "buffers" : [
        {
            "byteLength" : 1273136,
            "uri" : "scene.bin"
        }
    ]
}
