<svg width="255" height="97" viewBox="0 0 255 97" fill="none" xmlns="http://www.w3.org/2000/svg">
<path d="M6.56775 42V0.345998H0.54975V42H6.56775ZM49.9023 42V26.424C49.9023 24.064 49.9023 21.822 48.9583 19.58C47.0703 15.273 41.8193 12.382 34.6803 12.382C30.6683 12.382 27.8953 13.208 26.1843 13.916C23.8833 14.86 22.8213 15.863 21.8183 16.689V13.208H16.2133V42H21.8183V28.312C21.8183 26.542 21.8773 24.89 22.5263 23.238C23.8833 19.639 27.1873 18.459 28.0723 18.105C29.2523 17.692 30.8453 17.161 33.6773 17.161C39.5773 17.161 42.5273 19.58 43.5893 22.058C44.1203 23.238 44.3563 24.3 44.3563 26.778V42H49.9023ZM90.1708 13.208H83.7988L72.1758 36.336L60.7298 13.208H54.5347L69.0488 42H75.3028L90.1708 13.208ZM100.231 8.37V2.706H94.6852V8.37H100.231ZM100.349 42V13.208H94.7442V42H100.349ZM141.59 33.327C141.59 30.731 140.469 28.371 138.227 26.896C136.398 25.716 134.274 25.244 129.849 24.89C123.772 24.359 118.344 24.182 116.338 23.002C115.158 22.353 114.922 21.291 114.922 20.76C114.922 20.111 115.099 19.344 116.161 18.518C117.695 17.397 120.232 16.807 124.303 16.807C126.073 16.807 131.855 16.925 136.575 20.17L141.472 17.456C140.764 16.748 139.879 16.04 137.932 14.978C133.92 12.854 129.2 12.087 124.716 12.087C124.126 12.087 117.341 12.087 113.329 14.152C110.556 15.568 108.727 18.046 108.727 21.232C108.727 23.474 109.671 25.48 111.441 26.778C113.565 28.312 116.338 28.784 118.816 29.079C125.837 29.846 131.265 29.669 133.802 31.026C135.336 31.793 135.631 32.914 135.631 33.681C135.631 35.156 134.569 36.277 133.33 36.926C130.675 38.342 125.483 38.342 125.365 38.342C124.008 38.342 118.344 38.224 113.801 35.864C112.503 35.156 111.146 34.094 110.851 33.858L106.013 37.044C112.68 43.062 123.713 43.062 125.66 43.062C125.896 43.062 137.165 43.475 140.646 37.28C141.531 35.687 141.59 33.976 141.59 33.327ZM154.334 8.37V2.706H148.788V8.37H154.334ZM154.452 42V13.208H148.847V42H154.452ZM199.351 27.545C199.351 19.993 194.69 15.096 187.61 13.149C184.955 12.382 182.831 12.382 181.769 12.382C177.403 12.382 174.158 13.621 172.683 14.329C171.385 14.919 170.323 15.568 169.261 16.571V0.345998H163.656V42H169.261V38.755C170.559 39.994 171.739 40.525 172.447 40.879C174.394 41.823 177.049 42.767 181.828 42.767C189.793 42.767 194.1 39.522 196.224 36.926C199.115 33.386 199.351 29.02 199.351 27.545ZM193.569 27.663C193.569 32.56 190.442 35.215 189.026 36.159C186.076 38.047 182.477 38.106 181.474 38.106C180.235 38.106 172.565 37.988 169.851 32.206C168.907 30.259 168.907 28.725 168.907 27.84C168.907 25.539 169.556 20.524 175.161 18.105C176.813 17.397 178.642 16.925 180.471 16.866C185.486 16.63 188.672 18.636 190.088 19.875C193.215 22.589 193.569 26.247 193.569 27.663ZM212.125 42V0.345998H206.579V42H212.125ZM254.723 28.253C254.723 27.545 254.723 26.837 254.605 26.07C254.133 22.294 252.245 19.816 251.36 18.695C246.581 12.618 239.383 12.264 236.905 12.264C235.253 12.264 233.955 12.441 233.306 12.559C230.946 12.913 223.276 14.388 220.385 21.999C219.5 24.359 219.382 26.483 219.382 27.368C219.441 37.693 227.701 42.885 237.023 42.885C241.802 42.885 245.401 41.587 246.994 40.82C247.879 40.407 250.829 38.873 252.658 36.218C253.248 35.392 253.72 34.507 254.133 33.622L248.764 32.147C248.174 33.209 247.82 33.917 246.994 34.802C244.634 37.339 241.212 38.401 237.79 38.401C232.775 38.401 229.589 36.218 228.173 34.861C226.108 32.914 225.577 31.026 225.164 28.253H254.723ZM248.41 24.064H225.341C225.872 22.766 225.99 22.589 226.462 21.881C228.881 18.046 232.893 16.453 237.259 16.453C239.147 16.453 240.327 16.689 241.094 16.925C242.628 17.397 243.69 18.046 244.162 18.341C245.578 19.285 247.171 20.642 248.41 24.064ZM71.3956 84.377C71.3956 80.188 69.6256 77.828 68.4456 76.648C66.4986 74.642 64.5516 74.052 63.4896 73.698C63.4896 73.698 64.7286 73.226 65.2006 72.931C66.7936 72.046 69.3306 69.804 69.3306 65.143C69.3306 62.724 68.6816 60.482 67.0886 58.535C64.5516 55.526 60.5986 54.641 56.8226 54.405C55.7606 54.346 54.7576 54.346 53.6956 54.346H26.9686V96H53.6956C59.3006 96 66.0856 95.941 69.6256 90.572C71.3366 87.976 71.3956 85.498 71.3956 84.377ZM63.1946 65.556C63.1946 67.444 62.4866 68.742 62.0736 69.332C60.3036 71.869 57.4126 71.928 54.6986 71.928H32.9276V59.125H53.6366C55.9376 59.125 58.3566 59.125 60.4216 60.423C62.9586 62.016 63.1946 64.494 63.1946 65.556ZM65.2006 83.846C65.2596 86.088 64.3746 87.504 63.8436 88.212C61.7196 90.867 58.5336 91.162 55.4656 91.162H32.9276V76.707H55.4656C58.6516 76.707 62.0146 76.884 64.0206 79.775C65.2006 81.427 65.2006 83.138 65.2006 83.846ZM84.8762 62.37V56.706H79.3302V62.37H84.8762ZM84.9942 96V67.208H79.3892V96H84.9942ZM113.786 63.491L109.892 55.408H102.458L110.01 63.491H113.786ZM127.533 82.253C127.533 81.545 127.533 80.837 127.415 80.07C126.943 76.294 125.055 73.816 124.17 72.695C119.391 66.618 112.193 66.264 109.715 66.264C108.063 66.264 106.765 66.441 106.116 66.559C103.756 66.913 96.0862 68.388 93.1952 75.999C92.3102 78.359 92.1922 80.483 92.1922 81.368C92.2512 91.693 100.511 96.885 109.833 96.885C114.612 96.885 118.211 95.587 119.804 94.82C120.689 94.407 123.639 92.873 125.468 90.218C126.058 89.392 126.53 88.507 126.943 87.622L121.574 86.147C120.984 87.209 120.63 87.917 119.804 88.802C117.444 91.339 114.022 92.401 110.6 92.401C105.585 92.401 102.399 90.218 100.983 88.861C98.9182 86.914 98.3872 85.026 97.9742 82.253H127.533ZM121.22 78.064H98.1512C98.6822 76.766 98.8002 76.589 99.2722 75.881C101.691 72.046 105.703 70.453 110.069 70.453C111.957 70.453 113.137 70.689 113.904 70.925C115.438 71.397 116.5 72.046 116.972 72.341C118.388 73.285 119.981 74.642 121.22 78.064ZM165.793 67.208H159.421L147.798 90.336L136.352 67.208H130.157L144.671 96H150.925L165.793 67.208ZM190.427 72.341V66.854C189.719 66.677 188.775 66.382 187.123 66.382C182.521 66.382 179.099 68.093 177.624 69.096C176.739 69.686 176.444 70.04 176.031 70.453L175.972 67.208H170.426V96H176.031V80.424C176.031 79.126 176.09 77.946 176.503 76.707C178.391 71.515 184.999 71.692 186.002 71.692C188.244 71.692 189.365 72.046 190.427 72.341ZM228.363 82.253C228.363 81.545 228.363 80.837 228.245 80.07C227.773 76.294 225.885 73.816 225 72.695C220.221 66.618 213.023 66.264 210.545 66.264C208.893 66.264 207.595 66.441 206.946 66.559C204.586 66.913 196.916 68.388 194.025 75.999C193.14 78.359 193.022 80.483 193.022 81.368C193.081 91.693 201.341 96.885 210.663 96.885C215.442 96.885 219.041 95.587 220.634 94.82C221.519 94.407 224.469 92.873 226.298 90.218C226.888 89.392 227.36 88.507 227.773 87.622L222.404 86.147C221.814 87.209 221.46 87.917 220.634 88.802C218.274 91.339 214.852 92.401 211.43 92.401C206.415 92.401 203.229 90.218 201.813 88.861C199.748 86.914 199.217 85.026 198.804 82.253H228.363ZM222.05 78.064H198.981C199.512 76.766 199.63 76.589 200.102 75.881C202.521 72.046 206.533 70.453 210.899 70.453C212.787 70.453 213.967 70.689 214.734 70.925C216.268 71.397 217.33 72.046 217.802 72.341C219.218 73.285 220.811 74.642 222.05 78.064Z" fill="#ECCAB8"/>
</svg>
