<svg width="319" height="270" viewBox="0 0 319 270" fill="none" xmlns="http://www.w3.org/2000/svg">
<circle cx="64.8952" cy="60.39" r="1.8249" fill="#ECCAB8"/>
<circle cx="57.6872" cy="72.103" r="1.8249" fill="#ECCAB8"/>
<circle cx="64.8952" cy="74.806" r="1.8249" fill="#ECCAB8"/>
<circle cx="62.1921" cy="68.499" r="1.8249" fill="#ECCAB8"/>
<circle cx="74.8054" cy="71.2019" r="1.8249" fill="#ECCAB8"/>
<circle cx="71.2019" cy="56.786" r="1.8249" fill="#ECCAB8"/>
<circle cx="75.7067" cy="53.1819" r="1.8249" fill="#ECCAB8"/>
<circle cx="59.489" cy="52.2809" r="1.8249" fill="#ECCAB8"/>
<circle cx="58.5886" cy="43.2709" r="1.8249" fill="#ECCAB8"/>
<circle cx="80.2116" cy="47.7759" r="1.8249" fill="#ECCAB8"/>
<circle cx="73.0036" cy="60.39" r="1.8249" fill="#ECCAB8"/>
<circle cx="60.3893" cy="76.6079" r="1.8249" fill="#ECCAB8"/>
<circle cx="61.2907" cy="63.994" r="1.8249" fill="#ECCAB8"/>
<circle cx="84.7175" cy="38.7659" r="1.8249" fill="#ECCAB8"/>
<circle cx="90.1227" cy="33.3599" r="1.8249" fill="#ECCAB8"/>
<circle cx="84.7175" cy="32.4589" r="1.8249" fill="#ECCAB8"/>
<circle cx="77.5095" cy="26.1519" r="1.8249" fill="#ECCAB8"/>
<circle cx="91.0241" cy="36.9639" r="1.8249" fill="#ECCAB8"/>
<circle cx="96.4304" cy="34.2609" r="1.8249" fill="#ECCAB8"/>
<circle cx="95.529" cy="29.7559" r="1.8249" fill="#ECCAB8"/>
<circle cx="90.1227" cy="21.6469" r="1.8249" fill="#ECCAB8"/>
<circle cx="100.935" cy="29.7559" r="1.8249" fill="#ECCAB8"/>
<circle cx="88.321" cy="39.6669" r="1.8249" fill="#ECCAB8"/>
<circle cx="107.242" cy="27.9539" r="1.8249" fill="#ECCAB8"/>
<circle cx="103.638" cy="27.0529" r="1.8249" fill="#ECCAB8"/>
<circle cx="99.1325" cy="8.1319" r="1.8249" fill="#ECCAB8"/>
<circle cx="105.44" cy="19.8449" r="1.8249" fill="#ECCAB8"/>
<circle cx="118.956" cy="1.8249" r="1.8249" fill="#ECCAB8"/>
<circle cx="109.044" cy="25.2509" r="1.8249" fill="#ECCAB8"/>
<circle cx="115.351" cy="24.3499" r="1.8249" fill="#ECCAB8"/>
<circle cx="115.351" cy="18.0429" r="1.8249" fill="#ECCAB8"/>
<circle cx="119.855" cy="24.3499" r="1.8249" fill="#ECCAB8"/>
<circle cx="111.748" cy="23.4489" r="1.8249" fill="#ECCAB8"/>
<circle cx="146.885" cy="18.9439" r="1.8249" fill="#ECCAB8"/>
<circle cx="143.282" cy="19.8449" r="1.8249" fill="#ECCAB8"/>
<circle cx="138.777" cy="18.0429" r="1.8249" fill="#ECCAB8"/>
<circle cx="141.48" cy="16.2409" r="1.8249" fill="#ECCAB8"/>
<circle cx="129.767" cy="15.3399" r="1.8249" fill="#ECCAB8"/>
<circle cx="129.767" cy="24.3499" r="1.8249" fill="#ECCAB8"/>
<circle cx="152.293" cy="11.7359" r="1.8249" fill="#ECCAB8"/>
<circle cx="152.293" cy="17.1419" r="1.8249" fill="#ECCAB8"/>
<circle cx="155.896" cy="15.3399" r="1.8249" fill="#ECCAB8"/>
<circle cx="160.401" cy="14.4389" r="1.8249" fill="#ECCAB8"/>
<circle cx="164.906" cy="16.2409" r="1.8249" fill="#ECCAB8"/>
<circle cx="164.006" cy="9.0329" r="1.8249" fill="#ECCAB8"/>
<circle cx="171.214" cy="21.6469" r="1.8249" fill="#ECCAB8"/>
<circle cx="174.817" cy="21.6469" r="1.8249" fill="#ECCAB8"/>
<circle cx="176.619" cy="18.0429" r="1.8249" fill="#ECCAB8"/>
<circle cx="184.728" cy="17.1419" r="1.8249" fill="#ECCAB8"/>
<circle cx="181.124" cy="28.8549" r="1.8249" fill="#ECCAB8"/>
<circle cx="177.52" cy="27.0529" r="1.8249" fill="#ECCAB8"/>
<circle cx="184.728" cy="29.7559" r="1.8249" fill="#ECCAB8"/>
<circle cx="179.323" cy="24.3499" r="1.8249" fill="#ECCAB8"/>
<circle cx="191.936" cy="34.2609" r="1.8249" fill="#ECCAB8"/>
<circle cx="196.441" cy="37.8649" r="1.8249" fill="#ECCAB8"/>
<circle cx="200.946" cy="24.3499" r="1.8249" fill="#ECCAB8"/>
<circle cx="211.758" cy="26.1519" r="1.8249" fill="#ECCAB8"/>
<circle cx="200.045" cy="38.7659" r="1.8249" fill="#ECCAB8"/>
<circle cx="200.946" cy="35.1619" r="1.8249" fill="#ECCAB8"/>
<circle cx="204.55" cy="41.4689" r="1.8249" fill="#ECCAB8"/>
<circle cx="211.758" cy="38.7659" r="1.8249" fill="#ECCAB8"/>
<circle cx="215.362" cy="41.4689" r="1.8249" fill="#ECCAB8"/>
<circle cx="211.758" cy="41.4689" r="1.8249" fill="#ECCAB8"/>
<circle cx="220.767" cy="43.2709" r="1.8249" fill="#ECCAB8"/>
<circle cx="216.263" cy="45.0729" r="1.8249" fill="#ECCAB8"/>
<circle cx="208.154" cy="45.0729" r="1.8249" fill="#ECCAB8"/>
<circle cx="218.065" cy="51.3799" r="1.8249" fill="#ECCAB8"/>
<circle cx="228.877" cy="54.984" r="1.8249" fill="#ECCAB8"/>
<circle cx="229.778" cy="50.4789" r="1.8249" fill="#ECCAB8"/>
<circle cx="231.581" cy="57.687" r="1.8249" fill="#ECCAB8"/>
<circle cx="236.986" cy="61.291" r="1.8249" fill="#ECCAB8"/>
<circle cx="233.382" cy="54.984" r="1.8249" fill="#ECCAB8"/>
<circle cx="236.085" cy="53.1819" r="1.8249" fill="#ECCAB8"/>
<circle cx="239.688" cy="58.588" r="1.8249" fill="#ECCAB8"/>
<circle cx="242.392" cy="61.291" r="1.8249" fill="#ECCAB8"/>
<circle cx="245.997" cy="62.192" r="1.8249" fill="#ECCAB8"/>
<circle cx="248.699" cy="58.588" r="1.8249" fill="#ECCAB8"/>
<circle cx="255.907" cy="63.093" r="1.8249" fill="#ECCAB8"/>
<circle cx="264.016" cy="62.192" r="1.8249" fill="#ECCAB8"/>
<circle cx="275.729" cy="64.8949" r="1.8249" fill="#ECCAB8"/>
<circle cx="272.126" cy="54.984" r="1.8249" fill="#ECCAB8"/>
<circle cx="279.334" cy="65.7959" r="1.8249" fill="#ECCAB8"/>
<circle cx="253.204" cy="63.093" r="1.8249" fill="#ECCAB8"/>
<circle cx="253.204" cy="58.588" r="1.8249" fill="#ECCAB8"/>
<circle cx="218.966" cy="35.1619" r="1.8249" fill="#ECCAB8"/>
<circle cx="299.156" cy="71.2019" r="1.8249" fill="#ECCAB8"/>
<circle cx="300.957" cy="80.212" r="1.8249" fill="#ECCAB8"/>
<circle cx="289.244" cy="68.499" r="1.8249" fill="#ECCAB8"/>
<circle cx="308.165" cy="72.103" r="1.8249" fill="#ECCAB8"/>
<circle cx="302.759" cy="71.2019" r="1.8249" fill="#ECCAB8"/>
<circle cx="293.749" cy="70.301" r="1.8249" fill="#ECCAB8"/>
<circle cx="299.156" cy="62.192" r="1.8249" fill="#ECCAB8"/>
<circle cx="290.145" cy="62.192" r="1.8249" fill="#ECCAB8"/>
<circle cx="308.165" cy="80.212" r="1.8249" fill="#ECCAB8"/>
<circle cx="304.561" cy="78.41" r="1.8249" fill="#ECCAB8"/>
<circle cx="317.175" cy="89.2219" r="1.8249" fill="#ECCAB8"/>
<circle cx="312.671" cy="83.816" r="1.8249" fill="#ECCAB8"/>
<circle cx="317.175" cy="98.232" r="1.8249" fill="#ECCAB8"/>
<circle cx="311.769" cy="78.41" r="1.8249" fill="#ECCAB8"/>
<circle cx="283.839" cy="65.7959" r="1.8249" fill="#ECCAB8"/>
<circle cx="314.471" cy="107.242" r="1.8249" fill="#ECCAB8"/>
<circle cx="316.274" cy="102.737" r="1.8249" fill="#ECCAB8"/>
<circle cx="317.175" cy="80.212" r="1.8249" fill="#ECCAB8"/>
<circle cx="308.165" cy="116.252" r="1.8249" fill="#ECCAB8"/>
<circle cx="309.066" cy="125.262" r="1.8249" fill="#ECCAB8"/>
<circle cx="300.055" cy="125.262" r="1.8249" fill="#ECCAB8"/>
<circle cx="309.066" cy="134.272" r="1.8249" fill="#ECCAB8"/>
<circle cx="299.156" cy="130.668" r="1.8249" fill="#ECCAB8"/>
<circle cx="303.66" cy="123.46" r="1.8249" fill="#ECCAB8"/>
<circle cx="312.671" cy="111.747" r="1.8249" fill="#ECCAB8"/>
<circle cx="302.759" cy="127.965" r="1.8249" fill="#ECCAB8"/>
<circle cx="295.551" cy="130.668" r="1.8249" fill="#ECCAB8"/>
<circle cx="291.947" cy="133.371" r="1.8249" fill="#ECCAB8"/>
<circle cx="310.868" cy="117.153" r="1.8249" fill="#ECCAB8"/>
<circle cx="282.036" cy="134.272" r="1.8249" fill="#ECCAB8"/>
<circle cx="280.234" cy="136.074" r="1.8249" fill="#ECCAB8"/>
<circle cx="275.729" cy="137.876" r="1.8249" fill="#ECCAB8"/>
<circle cx="257.71" cy="146.886" r="1.8249" fill="#ECCAB8"/>
<circle cx="239.688" cy="119.856" r="1.8249" fill="#ECCAB8"/>
<circle cx="230.679" cy="119.856" r="1.8249" fill="#ECCAB8"/>
<circle cx="234.283" cy="123.46" r="1.8249" fill="#ECCAB8"/>
<circle cx="230.679" cy="113.549" r="1.8249" fill="#ECCAB8"/>
<circle cx="227.976" cy="117.153" r="1.8249" fill="#ECCAB8"/>
<circle cx="234.283" cy="113.549" r="1.8249" fill="#ECCAB8"/>
<circle cx="273.026" cy="114.45" r="1.8249" fill="#ECCAB8"/>
<circle cx="275.729" cy="115.351" r="1.8249" fill="#ECCAB8"/>
<circle cx="270.323" cy="117.153" r="1.8249" fill="#ECCAB8"/>
<circle cx="238.789" cy="126.163" r="1.8249" fill="#ECCAB8"/>
<circle cx="264.016" cy="141.48" r="1.8249" fill="#ECCAB8"/>
<circle cx="282.036" cy="141.48" r="1.8249" fill="#ECCAB8"/>
<circle cx="269.423" cy="141.48" r="1.8249" fill="#ECCAB8"/>
<circle cx="264.016" cy="145.084" r="1.8249" fill="#ECCAB8"/>
<circle cx="253.204" cy="145.084" r="1.8249" fill="#ECCAB8"/>
<circle cx="245.997" cy="150.49" r="1.8249" fill="#ECCAB8"/>
<circle cx="227.976" cy="150.49" r="1.8249" fill="#ECCAB8"/>
<circle cx="255.006" cy="168.51" r="1.8249" fill="#ECCAB8"/>
<circle cx="236.986" cy="168.51" r="1.8249" fill="#ECCAB8"/>
<circle cx="300.055" cy="150.49" r="1.8249" fill="#ECCAB8"/>
<circle cx="282.036" cy="159.5" r="1.8249" fill="#ECCAB8"/>
<circle cx="291.047" cy="150.49" r="1.8249" fill="#ECCAB8"/>
<circle cx="273.026" cy="159.5" r="1.8249" fill="#ECCAB8"/>
<circle cx="245.997" cy="143.282" r="1.8249" fill="#ECCAB8"/>
<circle cx="236.986" cy="138.777" r="1.8249" fill="#ECCAB8"/>
<circle cx="240.59" cy="143.282" r="1.8249" fill="#ECCAB8"/>
<circle cx="227.976" cy="136.074" r="1.8249" fill="#ECCAB8"/>
<circle cx="218.966" cy="134.272" r="1.8249" fill="#ECCAB8"/>
<circle cx="218.966" cy="138.777" r="1.8249" fill="#ECCAB8"/>
<circle cx="209.956" cy="138.777" r="1.8249" fill="#ECCAB8"/>
<circle cx="200.946" cy="143.282" r="1.8249" fill="#ECCAB8"/>
<circle cx="191.936" cy="146.886" r="1.8249" fill="#ECCAB8"/>
<circle cx="189.233" cy="148.688" r="1.8249" fill="#ECCAB8"/>
<circle cx="158.992" cy="135.132" r="1.8249" fill="#ECCAB8"/>
<circle cx="214.461" cy="136.975" r="1.8249" fill="#ECCAB8"/>
<circle cx="164.906" cy="161.302" r="1.8249" fill="#ECCAB8"/>
<circle cx="169.411" cy="158.599" r="1.8249" fill="#ECCAB8"/>
<circle cx="174.817" cy="154.995" r="1.8249" fill="#ECCAB8"/>
<circle cx="173.014" cy="161.302" r="1.8249" fill="#ECCAB8"/>
<circle cx="182.926" cy="153.193" r="1.8249" fill="#ECCAB8"/>
<circle cx="209.956" cy="152.292" r="1.8249" fill="#ECCAB8"/>
<circle cx="200.946" cy="153.193" r="1.8249" fill="#ECCAB8"/>
<circle cx="207.253" cy="146.886" r="1.8249" fill="#ECCAB8"/>
<circle cx="217.164" cy="143.282" r="1.8249" fill="#ECCAB8"/>
<circle cx="218.966" cy="152.292" r="1.8249" fill="#ECCAB8"/>
<circle cx="226.174" cy="139.678" r="1.8249" fill="#ECCAB8"/>
<circle cx="200.946" cy="147.787" r="1.8249" fill="#ECCAB8"/>
<circle cx="191.035" cy="154.995" r="1.8249" fill="#ECCAB8"/>
<circle cx="182.926" cy="161.302" r="1.8249" fill="#ECCAB8"/>
<circle cx="196.441" cy="144.183" r="1.8249" fill="#ECCAB8"/>
<circle cx="159.5" cy="163.104" r="1.8249" fill="#ECCAB8"/>
<circle cx="149.59" cy="132.47" r="1.8249" fill="#ECCAB8"/>
<circle cx="158.599" cy="132.47" r="1.8249" fill="#ECCAB8"/>
<circle cx="154.093" cy="132.47" r="1.8249" fill="#ECCAB8"/>
<circle cx="150.49" cy="136.975" r="1.8249" fill="#ECCAB8"/>
<circle cx="163.104" cy="141.48" r="1.8249" fill="#ECCAB8"/>
<circle cx="162.203" cy="136.074" r="1.8249" fill="#ECCAB8"/>
<circle cx="166.708" cy="136.074" r="1.8249" fill="#ECCAB8"/>
<circle cx="147.787" cy="142.381" r="1.8249" fill="#ECCAB8"/>
<circle cx="146.885" cy="145.084" r="1.8249" fill="#ECCAB8"/>
<circle cx="146.885" cy="148.688" r="1.8249" fill="#ECCAB8"/>
<circle cx="146.885" cy="157.698" r="1.8249" fill="#ECCAB8"/>
<circle cx="140.579" cy="166.708" r="1.8249" fill="#ECCAB8"/>
<circle cx="137.877" cy="175.718" r="1.8249" fill="#ECCAB8"/>
<circle cx="133.371" cy="184.728" r="1.8249" fill="#ECCAB8"/>
<circle cx="132.469" cy="191.936" r="1.8249" fill="#ECCAB8"/>
<circle cx="135.173" cy="189.233" r="1.8249" fill="#ECCAB8"/>
<circle cx="145.085" cy="183.827" r="1.8249" fill="#ECCAB8"/>
<circle cx="151.391" cy="163.104" r="1.8249" fill="#ECCAB8"/>
<circle cx="155.896" cy="148.688" r="1.8249" fill="#ECCAB8"/>
<circle cx="153.193" cy="151.391" r="1.8249" fill="#ECCAB8"/>
<circle cx="149.59" cy="153.193" r="1.8249" fill="#ECCAB8"/>
<circle cx="146.885" cy="166.708" r="1.8249" fill="#ECCAB8"/>
<circle cx="173.916" cy="193.738" r="1.8249" fill="#ECCAB8"/>
<circle cx="200.946" cy="175.718" r="1.8249" fill="#ECCAB8"/>
<circle cx="191.936" cy="184.728" r="1.8249" fill="#ECCAB8"/>
<circle cx="200.946" cy="193.738" r="1.8249" fill="#ECCAB8"/>
<circle cx="137.877" cy="202.748" r="1.8249" fill="#ECCAB8"/>
<circle cx="122.559" cy="218.065" r="1.8249" fill="#ECCAB8"/>
<circle cx="113.549" cy="226.174" r="1.8249" fill="#ECCAB8"/>
<circle cx="118.956" cy="224.372" r="1.8249" fill="#ECCAB8"/>
<circle cx="104.54" cy="218.065" r="1.8249" fill="#ECCAB8"/>
<circle cx="131.569" cy="227.976" r="1.8249" fill="#ECCAB8"/>
<circle cx="122.559" cy="223.471" r="1.8249" fill="#ECCAB8"/>
<circle cx="104.54" cy="227.075" r="1.8249" fill="#ECCAB8"/>
<circle cx="100.935" cy="218.065" r="1.8249" fill="#ECCAB8"/>
<circle cx="101.836" cy="222.57" r="1.8249" fill="#ECCAB8"/>
<circle cx="89.2224" cy="227.075" r="1.8249" fill="#ECCAB8"/>
<circle cx="95.529" cy="218.065" r="1.8249" fill="#ECCAB8"/>
<circle cx="95.529" cy="227.075" r="1.8249" fill="#ECCAB8"/>
<circle cx="127.965" cy="212.659" r="1.8249" fill="#ECCAB8"/>
<circle cx="101.836" cy="202.748" r="1.8249" fill="#ECCAB8"/>
<circle cx="101.836" cy="184.728" r="1.8249" fill="#ECCAB8"/>
<circle cx="101.836" cy="193.738" r="1.8249" fill="#ECCAB8"/>
<circle cx="103.638" cy="190.134" r="1.8249" fill="#ECCAB8"/>
<circle cx="100.034" cy="206.352" r="1.8249" fill="#ECCAB8"/>
<circle cx="95.529" cy="206.352" r="1.8249" fill="#ECCAB8"/>
<circle cx="61.2907" cy="148.688" r="1.8249" fill="#ECCAB8"/>
<circle cx="54.9841" cy="154.995" r="1.8249" fill="#ECCAB8"/>
<circle cx="49.5778" cy="160.401" r="1.8249" fill="#ECCAB8"/>
<circle cx="105.44" cy="166.708" r="1.8249" fill="#ECCAB8"/>
<circle cx="103.638" cy="149.589" r="1.8249" fill="#ECCAB8"/>
<circle cx="110.846" cy="157.698" r="1.8249" fill="#ECCAB8"/>
<circle cx="110.846" cy="163.104" r="1.8249" fill="#ECCAB8"/>
<circle cx="109.945" cy="175.718" r="1.8249" fill="#ECCAB8"/>
<circle cx="107.242" cy="184.728" r="1.8249" fill="#ECCAB8"/>
<circle cx="95.529" cy="211.758" r="1.8249" fill="#ECCAB8"/>
<circle cx="32.4587" cy="238.788" r="1.8249" fill="#ECCAB8"/>
<circle cx="37.8649" cy="240.59" r="1.8249" fill="#ECCAB8"/>
<circle cx="41.4684" cy="240.59" r="1.8249" fill="#ECCAB8"/>
<circle cx="45.0729" cy="243.293" r="1.8249" fill="#ECCAB8"/>
<circle cx="47.7761" cy="241.491" r="1.8249" fill="#ECCAB8"/>
<circle cx="46.8747" cy="249.6" r="1.8249" fill="#ECCAB8"/>
<circle cx="54.9841" cy="245.095" r="1.8249" fill="#ECCAB8"/>
<circle cx="64.8952" cy="241.491" r="1.8249" fill="#ECCAB8"/>
<circle cx="28.8552" cy="231.58" r="1.8249" fill="#ECCAB8"/>
<circle cx="19.8444" cy="231.58" r="1.8249" fill="#ECCAB8"/>
<circle cx="10.8356" cy="222.57" r="1.8249" fill="#ECCAB8"/>
<circle cx="10.8356" cy="213.56" r="1.8249" fill="#ECCAB8"/>
<circle cx="16.2409" cy="222.57" r="1.8249" fill="#ECCAB8"/>
<circle cx="19.8444" cy="213.56" r="1.8249" fill="#ECCAB8"/>
<circle cx="5.42841" cy="204.55" r="1.8249" fill="#ECCAB8"/>
<circle cx="12.6364" cy="202.748" r="1.8249" fill="#ECCAB8"/>
<circle cx="13.5378" cy="209.956" r="1.8249" fill="#ECCAB8"/>
<circle cx="14.4392" cy="218.065" r="1.8249" fill="#ECCAB8"/>
<circle cx="10.8356" cy="186.53" r="1.8249" fill="#ECCAB8"/>
<circle cx="10.8356" cy="193.738" r="1.8249" fill="#ECCAB8"/>
<circle cx="9.0329" cy="209.055" r="1.8249" fill="#ECCAB8"/>
<circle cx="10.8356" cy="240.59" r="1.8249" fill="#ECCAB8"/>
<circle cx="19.8444" cy="267.62" r="1.8249" fill="#ECCAB8"/>
<circle cx="19.8444" cy="249.6" r="1.8249" fill="#ECCAB8"/>
<circle cx="28.8552" cy="240.59" r="1.8249" fill="#ECCAB8"/>
<circle cx="37.8649" cy="258.61" r="1.8249" fill="#ECCAB8"/>
<circle cx="1.8249" cy="195.54" r="1.8249" fill="#ECCAB8"/>
<circle cx="17.1423" cy="198.243" r="1.8249" fill="#ECCAB8"/>
<circle cx="59.489" cy="238.788" r="1.8249" fill="#ECCAB8"/>
<circle cx="101.836" cy="211.758" r="1.8249" fill="#ECCAB8"/>
<circle cx="164.906" cy="184.728" r="1.8249" fill="#ECCAB8"/>
<circle cx="184.728" cy="191.035" r="1.8249" fill="#ECCAB8"/>
<circle cx="146.885" cy="157.698" r="1.8249" fill="#ECCAB8"/>
<circle cx="245.095" cy="46.8749" r="1.8249" fill="#ECCAB8"/>
<circle cx="259.51" cy="47.7759" r="1.8249" fill="#ECCAB8"/>
<circle cx="237.887" cy="37.8649" r="1.8249" fill="#ECCAB8"/>
<circle cx="72.1022" cy="79.311" r="1.8249" fill="#ECCAB8"/>
<circle cx="69.4001" cy="87.42" r="1.8249" fill="#ECCAB8"/>
<circle cx="67.5974" cy="98.232" r="1.8249" fill="#ECCAB8"/>
<circle cx="66.697" cy="109.945" r="1.8249" fill="#ECCAB8"/>
<circle cx="58.5886" cy="102.737" r="1.8249" fill="#ECCAB8"/>
<circle cx="56.7858" cy="110.846" r="1.8249" fill="#ECCAB8"/>
<circle cx="55.8854" cy="117.153" r="1.8249" fill="#ECCAB8"/>
<circle cx="57.6872" cy="120.757" r="1.8249" fill="#ECCAB8"/>
<circle cx="51.3806" cy="126.163" r="1.8249" fill="#ECCAB8"/>
<circle cx="55.8854" cy="127.965" r="1.8249" fill="#ECCAB8"/>
<circle cx="57.6872" cy="133.371" r="1.8249" fill="#ECCAB8"/>
<circle cx="43.2712" cy="124.361" r="1.8249" fill="#ECCAB8"/>
<circle cx="37.8649" cy="102.737" r="1.8249" fill="#ECCAB8"/>
<circle cx="53.1813" cy="113.549" r="1.8249" fill="#ECCAB8"/>
<circle cx="55.8854" cy="99.133" r="1.8249" fill="#ECCAB8"/>
<circle cx="57.6872" cy="106.341" r="1.8249" fill="#ECCAB8"/>
<circle cx="64.8952" cy="121.658" r="1.8249" fill="#ECCAB8"/>
<circle cx="64.8952" cy="139.678" r="1.8249" fill="#ECCAB8"/>
<circle cx="67.5974" cy="132.47" r="1.8249" fill="#ECCAB8"/>
<circle cx="63.9938" cy="145.084" r="1.8249" fill="#ECCAB8"/>
<circle cx="55.8854" cy="146.886" r="1.8249" fill="#ECCAB8"/>
<circle cx="50.4792" cy="154.094" r="1.8249" fill="#ECCAB8"/>
<circle cx="45.9733" cy="149.589" r="1.8249" fill="#ECCAB8"/>
<circle cx="38.7653" cy="155.896" r="1.8249" fill="#ECCAB8"/>
<circle cx="34.2604" cy="163.104" r="1.8249" fill="#ECCAB8"/>
<circle cx="31.5583" cy="135.173" r="1.8249" fill="#ECCAB8"/>
<circle cx="43.2712" cy="165.807" r="1.8249" fill="#ECCAB8"/>
<circle cx="35.1618" cy="171.213" r="1.8249" fill="#ECCAB8"/>
<circle cx="53.1813" cy="241.491" r="1.8249" fill="#ECCAB8"/>
<circle cx="83.8161" cy="233.382" r="1.8249" fill="#ECCAB8"/>
<circle cx="88.321" cy="236.986" r="1.8249" fill="#ECCAB8"/>
<circle cx="76.6081" cy="240.59" r="1.8249" fill="#ECCAB8"/>
<circle cx="82.9147" cy="241.491" r="1.8249" fill="#ECCAB8"/>
<circle cx="82.0144" cy="236.986" r="1.8249" fill="#ECCAB8"/>
<circle cx="90.1227" cy="231.58" r="1.8249" fill="#ECCAB8"/>
<circle cx="57.6872" cy="258.61" r="1.8249" fill="#ECCAB8"/>
<circle cx="99.1325" cy="252.303" r="1.8249" fill="#ECCAB8"/>
<circle cx="109.945" cy="243.293" r="1.8249" fill="#ECCAB8"/>
<circle cx="105.44" cy="236.085" r="1.8249" fill="#ECCAB8"/>
<circle cx="133.371" cy="247.798" r="1.8249" fill="#ECCAB8"/>
<circle cx="59.489" cy="267.62" r="1.8249" fill="#ECCAB8"/>
<circle cx="22.5476" cy="154.094" r="1.8249" fill="#ECCAB8"/>
<circle cx="18.9431" cy="142.381" r="1.8249" fill="#ECCAB8"/>
<circle cx="8.13154" cy="157.698" r="1.8249" fill="#ECCAB8"/>
<circle cx="16.2409" cy="130.668" r="1.8249" fill="#ECCAB8"/>
<circle cx="46.8747" cy="162.203" r="1.8249" fill="#ECCAB8"/>
<circle cx="10.8356" cy="174.817" r="1.8249" fill="#ECCAB8"/>
<circle cx="14.4392" cy="172.114" r="1.8249" fill="#ECCAB8"/>
<circle cx="15.3395" cy="177.52" r="1.8249" fill="#ECCAB8"/>
<circle cx="31.5583" cy="135.173" r="1.8249" fill="#ECCAB8"/>
<circle cx="27.0524" cy="176.619" r="1.8249" fill="#ECCAB8"/>
</svg>
