{
  "accessors": [
    {
      "bufferView": 3,
      "componentType": 5126,
      "count": 295,
      "max": [
        1.093043327331543,
        0.46307599544525146,
        1.0028536319732666
      ],
      "min": [
        -0.80469030141830444,
        -0.46307599544525146,
        -3.408829927444458
      ],
      "type": "VEC3"
    },
    {
      "bufferView": 3,
      "byteOffset": 3540,
      "componentType": 5126,
      "count": 295,
      "max": [
        0.51289153099060059,
        1,
        0.5963408350944519
      ],
      "min": [
        -0.63665050268173218,
        -1,
        -0.22221755981445312
      ],
      "type": "VEC3"
    },
    {
      "bufferView": 2,
      "componentType": 5126,
      "count": 295,
      "max": [
        0.99871999025344849,
        0.94902002811431885
      ],
      "min": [
        -0.00096999999368563294,
        0.018880000337958336
      ],
      "type": "VEC2"
    },
    {
      "bufferView": 1,
      "componentType": 5125,
      "count": 459,
      "max": [
        294
      ],
      "min": [
        0
      ],
      "type": "SCALAR"
    },
    {
      "bufferView": 5,
      "componentType": 5126,
      "count": 12,
      "max": [
        1,
        0.11553999781608582,
        0.99998998641967773,
        0,
        1,
        1,
        0.21743999421596527,
        0,
        0.14203000068664551,
        0.99898999929428101,
        1,
        0,
        0.2681100070476532,
        0.15417000651359558,
        0.20720000565052032,
        1
      ],
      "min": [
        -0.66411000490188599,
        -0.80027002096176147,
        -0.99879997968673706,
        0,
        -1,
        -0.65491002798080444,
        -1,
        0,
        -0.14846000075340271,
        -0.99998998641967773,
        -0.048930000513792038,
        0,
        -0.27335000038146973,
        -2.8664898872375488,
        -0.13407999277114868,
        1
      ],
      "type": "MAT4"
    },
    {
      "bufferView": 0,
      "componentType": 5123,
      "count": 295,
      "max": [
        11,
        11,
        11,
        10
      ],
      "min": [
        1,
        1,
        1,
        1
      ],
      "type": "VEC4"
    },
    {
      "bufferView": 4,
      "componentType": 5126,
      "count": 295,
      "max": [
        1,
        0.43671408295631409,
        0.23965936899185181,
        0.14580442011356354
      ],
      "min": [
        0.37449479103088379,
        0,
        0,
        0
      ],
      "type": "VEC4"
    },
    {
      "bufferView": 6,
      "componentType": 5126,
      "count": 700,
      "max": [
        29.166669845581055
      ],
      "min": [
        0.041669998317956924
      ],
      "type": "SCALAR"
    },
    {
      "bufferView": 7,
      "componentType": 5126,
      "count": 700,
      "max": [
        0.70710998773574829,
        0.03700999915599823,
        0.03700999915599823,
        0.70710998773574829
      ],
      "min": [
        0.70613998174667358,
        -0.03700999915599823,
        -0.03700999915599823,
        0.70613998174667358
      ],
      "type": "VEC4"
    },
    {
      "bufferView": 6,
      "byteOffset": 2800,
      "componentType": 5126,
      "count": 1,
      "max": [
        0.041669998317956924
      ],
      "min": [
        0.041669998317956924
      ],
      "type": "SCALAR"
    },
    {
      "bufferView": 7,
      "byteOffset": 11200,
      "componentType": 5126,
      "count": 1,
      "max": [
        0.7069278359413147,
        -0.015906823799014091,
        0.015906823799014091,
        0.7069278359413147
      ],
      "min": [
        0.7069278359413147,
        -0.015906823799014091,
        0.015906823799014091,
        0.7069278359413147
      ],
      "type": "VEC4"
    },
    {
      "bufferView": 6,
      "byteOffset": 2804,
      "componentType": 5126,
      "count": 1,
      "max": [
        0.041669998317956924
      ],
      "min": [
        0.041669998317956924
      ],
      "type": "SCALAR"
    },
    {
      "bufferView": 7,
      "byteOffset": 11216,
      "componentType": 5126,
      "count": 1,
      "max": [
        0.51208895444869995,
        0.51208394765853882,
        -0.4876115620136261,
        -0.48761656880378723
      ],
      "min": [
        0.51208895444869995,
        0.51208394765853882,
        -0.4876115620136261,
        -0.48761656880378723
      ],
      "type": "VEC4"
    },
    {
      "bufferView": 6,
      "byteOffset": 2808,
      "componentType": 5126,
      "count": 1,
      "max": [
        0.041669998317956924
      ],
      "min": [
        0.041669998317956924
      ],
      "type": "SCALAR"
    },
    {
      "bufferView": 7,
      "byteOffset": 11232,
      "componentType": 5126,
      "count": 1,
      "max": [
        0,
        0.99965453147888184,
        0.026284035295248032,
        4.9982681957772002e-06
      ],
      "min": [
        0,
        0.99965453147888184,
        0.026284035295248032,
        4.9982681957772002e-06
      ],
      "type": "VEC4"
    },
    {
      "bufferView": 6,
      "byteOffset": 2812,
      "componentType": 5126,
      "count": 1,
      "max": [
        0.041669998317956924
      ],
      "min": [
        0.041669998317956924
      ],
      "type": "SCALAR"
    },
    {
      "bufferView": 7,
      "byteOffset": 11248,
      "componentType": 5126,
      "count": 1,
      "max": [
        0.02623412199318409,
        0,
        0,
        0.99965584278106689
      ],
      "min": [
        0.02623412199318409,
        0,
        0,
        0.99965584278106689
      ],
      "type": "VEC4"
    },
    {
      "bufferView": 6,
      "byteOffset": 2816,
      "componentType": 5126,
      "count": 1,
      "max": [
        0.041669998317956924
      ],
      "min": [
        0.041669998317956924
      ],
      "type": "SCALAR"
    },
    {
      "bufferView": 7,
      "byteOffset": 11264,
      "componentType": 5126,
      "count": 1,
      "max": [
        0.033463753759860992,
        -0,
        0,
        0.99943995475769043
      ],
      "min": [
        0.033463753759860992,
        -0,
        0,
        0.99943995475769043
      ],
      "type": "VEC4"
    },
    {
      "bufferView": 6,
      "byteOffset": 2820,
      "componentType": 5126,
      "count": 1,
      "max": [
        0.041669998317956924
      ],
      "min": [
        0.041669998317956924
      ],
      "type": "SCALAR"
    },
    {
      "bufferView": 7,
      "byteOffset": 11280,
      "componentType": 5126,
      "count": 1,
      "max": [
        -0.17683982849121094,
        -0.13405153155326843,
        0.375864177942276,
        0.89971327781677246
      ],
      "min": [
        -0.17683982849121094,
        -0.13405153155326843,
        0.375864177942276,
        0.89971327781677246
      ],
      "type": "VEC4"
    },
    {
      "bufferView": 6,
      "byteOffset": 2824,
      "componentType": 5126,
      "count": 691,
      "max": [
        29.166669845581055
      ],
      "min": [
        0.041669998317956924
      ],
      "type": "SCALAR"
    },
    {
      "bufferView": 7,
      "byteOffset": 11296,
      "componentType": 5126,
      "count": 691,
      "max": [
        -0.054033622145652771,
        0.065907903015613556,
        0.22967341542243958,
        0.99709349870681763
      ],
      "min": [
        -0.07535165548324585,
        -0.16709558665752411,
        -0.13338726758956909,
        0.95725899934768677
      ],
      "type": "VEC4"
    },
    {
      "bufferView": 6,
      "byteOffset": 5588,
      "componentType": 5126,
      "count": 1,
      "max": [
        0.041669998317956924
      ],
      "min": [
        0.041669998317956924
      ],
      "type": "SCALAR"
    },
    {
      "bufferView": 7,
      "byteOffset": 22352,
      "componentType": 5126,
      "count": 1,
      "max": [
        -0.017860701307654381,
        0.0039181993342936039,
        -0.0043657757341861725,
        0.99982327222824097
      ],
      "min": [
        -0.017860701307654381,
        0.0039181993342936039,
        -0.0043657757341861725,
        0.99982327222824097
      ],
      "type": "VEC4"
    },
    {
      "bufferView": 6,
      "byteOffset": 5592,
      "componentType": 5126,
      "count": 1,
      "max": [
        0.041669998317956924
      ],
      "min": [
        0.041669998317956924
      ],
      "type": "SCALAR"
    },
    {
      "bufferView": 7,
      "byteOffset": 22368,
      "componentType": 5126,
      "count": 1,
      "max": [
        -0.15412840247154236,
        -0.16839589178562164,
        0.89649176597595215,
        0.37972334027290344
      ],
      "min": [
        -0.15412840247154236,
        -0.16839589178562164,
        0.89649176597595215,
        0.37972334027290344
      ],
      "type": "VEC4"
    },
    {
      "bufferView": 6,
      "byteOffset": 5596,
      "componentType": 5126,
      "count": 700,
      "max": [
        29.166669845581055
      ],
      "min": [
        0.041669998317956924
      ],
      "type": "SCALAR"
    },
    {
      "bufferView": 7,
      "byteOffset": 22384,
      "componentType": 5126,
      "count": 700,
      "max": [
        -0.027970872819423676,
        0.11611321568489075,
        0.13865926861763,
        0.99633932113647461
      ],
      "min": [
        -0.11859548091888428,
        -0.082316704094409943,
        -0.24267365038394928,
        0.96356105804443359
      ],
      "type": "VEC4"
    },
    {
      "bufferView": 6,
      "byteOffset": 8396,
      "componentType": 5126,
      "count": 1,
      "max": [
        0.041669998317956924
      ],
      "min": [
        0.041669998317956924
      ],
      "type": "SCALAR"
    },
    {
      "bufferView": 7,
      "byteOffset": 33584,
      "componentType": 5126,
      "count": 1,
      "max": [
        -0.017786892130970955,
        0.012345517054200172,
        0.0046536503359675407,
        0.99975472688674927
      ],
      "min": [
        -0.017786892130970955,
        0.012345517054200172,
        0.0046536503359675407,
        0.99975472688674927
      ],
      "type": "VEC4"
    }
  ],
  "animations": [
    {
      "channels": [
        {
          "sampler": 0,
          "target": {
            "node": 5,
            "path": "rotation"
          }
        },
        {
          "sampler": 1,
          "target": {
            "node": 8,
            "path": "rotation"
          }
        },
        {
          "sampler": 2,
          "target": {
            "node": 9,
            "path": "rotation"
          }
        },
        {
          "sampler": 3,
          "target": {
            "node": 10,
            "path": "rotation"
          }
        },
        {
          "sampler": 4,
          "target": {
            "node": 11,
            "path": "rotation"
          }
        },
        {
          "sampler": 5,
          "target": {
            "node": 12,
            "path": "rotation"
          }
        },
        {
          "sampler": 6,
          "target": {
            "node": 13,
            "path": "rotation"
          }
        },
        {
          "sampler": 7,
          "target": {
            "node": 14,
            "path": "rotation"
          }
        },
        {
          "sampler": 8,
          "target": {
            "node": 15,
            "path": "rotation"
          }
        },
        {
          "sampler": 9,
          "target": {
            "node": 16,
            "path": "rotation"
          }
        },
        {
          "sampler": 10,
          "target": {
            "node": 17,
            "path": "rotation"
          }
        },
        {
          "sampler": 11,
          "target": {
            "node": 18,
            "path": "rotation"
          }
        }
      ],
      "name": "Take 01",
      "samplers": [
        {
          "input": 7,
          "interpolation": "LINEAR",
          "output": 8
        },
        {
          "input": 9,
          "interpolation": "LINEAR",
          "output": 10
        },
        {
          "input": 11,
          "interpolation": "LINEAR",
          "output": 12
        },
        {
          "input": 13,
          "interpolation": "LINEAR",
          "output": 14
        },
        {
          "input": 15,
          "interpolation": "LINEAR",
          "output": 16
        },
        {
          "input": 17,
          "interpolation": "LINEAR",
          "output": 18
        },
        {
          "input": 19,
          "interpolation": "LINEAR",
          "output": 20
        },
        {
          "input": 21,
          "interpolation": "LINEAR",
          "output": 22
        },
        {
          "input": 23,
          "interpolation": "LINEAR",
          "output": 24
        },
        {
          "input": 25,
          "interpolation": "LINEAR",
          "output": 26
        },
        {
          "input": 27,
          "interpolation": "LINEAR",
          "output": 28
        },
        {
          "input": 29,
          "interpolation": "LINEAR",
          "output": 30
        }
      ]
    }
  ],
  "asset": {
    "extras": {
      "author": "nadilasgnti (https://sketchfab.com/nadilasgnti)",
      "license": "CC-BY-4.0 (http://creativecommons.org/licenses/by/4.0/)",
      "source": "https://sketchfab.com/3d-models/fish-animation-a0c2c93c77434e4096b3ad83780b8d41",
      "title": "Fish Animation"
    },
    "generator": "Sketchfab-8.46.0",
    "version": "2.0"
  },
  "bufferViews": [
    {
      "buffer": 0,
      "byteLength": 2360,
      "byteOffset": 0,
      "byteStride": 8,
      "name": "shortBufferViews",
      "target": 34962
    },
    {
      "buffer": 0,
      "byteLength": 1836,
      "byteOffset": 2360,
      "name": "floatBufferViews",
      "target": 34963
    },
    {
      "buffer": 0,
      "byteLength": 2360,
      "byteOffset": 4196,
      "byteStride": 8,
      "name": "floatBufferViews",
      "target": 34962
    },
    {
      "buffer": 0,
      "byteLength": 7080,
      "byteOffset": 6556,
      "byteStride": 12,
      "name": "floatBufferViews",
      "target": 34962
    },
    {
      "buffer": 0,
      "byteLength": 4720,
      "byteOffset": 13636,
      "byteStride": 16,
      "name": "floatBufferViews",
      "target": 34962
    },
    {
      "buffer": 0,
      "byteLength": 768,
      "byteOffset": 18356,
      "byteStride": 64,
      "name": "floatBufferViews"
    },
    {
      "buffer": 0,
      "byteLength": 8400,
      "byteOffset": 19124,
      "name": "floatBufferViews"
    },
    {
      "buffer": 0,
      "byteLength": 33600,
      "byteOffset": 27524,
      "byteStride": 16,
      "name": "floatBufferViews"
    }
  ],
  "buffers": [
    {
      "byteLength": 61124,
      "uri": "scene.bin"
    }
  ],
  "extensionsRequired": [
    "KHR_materials_pbrSpecularGlossiness"
  ],
  "extensionsUsed": [
    "KHR_materials_pbrSpecularGlossiness"
  ],
  "images": [
    {
      "uri": "textures/ikannemo_diffuse.png"
    }
  ],
  "materials": [
    {
      "doubleSided": true,
      "extensions": {
        "KHR_materials_pbrSpecularGlossiness": {
          "diffuseFactor": [
            1,
            1,
            1,
            1
          ],
          "diffuseTexture": {
            "index": 0,
            "texCoord": 0
          },
          "glossinessFactor": 0.34246575342465757,
          "specularFactor": [
            0.35920852359208522,
            0.35920852359208522,
            0.35920852359208522
          ],
          "specularGlossinessTexture": {
            "index": 0,
            "texCoord": 0
          }
        }
      },
      "name": "ikannemo"
    }
  ],
  "meshes": [
    {
      "name": "Cylinder",
      "primitives": [
        {
          "attributes": {
            "JOINTS_0": 5,
            "NORMAL": 1,
            "POSITION": 0,
            "TEXCOORD_0": 2,
            "WEIGHTS_0": 6
          },
          "indices": 3,
          "material": 0,
          "mode": 4
        }
      ]
    }
  ],
  "nodes": [
    {
      "children": [
        1
      ],
      "name": "RootNode (gltf orientation matrix)",
      "rotation": [
        -0.70710678118654746,
        -0,
        -0,
        0.70710678118654757
      ]
    },
    {
      "children": [
        2
      ],
      "name": "RootNode (model correction matrix)"
    },
    {
      "children": [
        3,
        5
      ],
      "name": "Root"
    },
    {
      "children": [
        4
      ],
      "matrix": [
        -0.29086000000000006,
        0.95517000000000007,
        -0.05519000000000001,
        0,
        -0.77110000000000001,
        -0.19988000000000003,
        0.60452000000000006,
        0,
        0.56639000000000006,
        0.21839000000000003,
        0.7946700000000001,
        0,
        4.0762500000000008,
        1.00545,
        5.9038600000000008,
        1
      ],
      "name": "Lamp"
    },
    {
      "name": "Lamp"
    },
    {
      "children": [
        6
      ],
      "name": "Plane",
      "rotation": [
        0.70710676908493042,
        0,
        0,
        0.70710676908493042
      ],
      "scale": [
        0.46904000639915466,
        0.23575000464916229,
        1
      ]
    },
    {
      "children": [
        7,
        20,
        19
      ],
      "matrix": [
        0.0026400000000000009,
        0.81832000000000005,
        0,
        0,
        0,
        0,
        -0.19292000000000004,
        0,
        -0.41131000000000006,
        0.0052400000000000007,
        -0,
        0,
        0.060650000000000016,
        0.037670000000000009,
        -0,
        1
      ],
      "name": "Armature.001"
    },
    {
      "children": [
        8,
        9,
        13,
        16
      ],
      "name": "Armature.001_rootJoint"
    },
    {
      "name": "Bone_Armature.001",
      "rotation": [
        0.7069278359413147,
        -0.015906823799014091,
        0.015906823799014091,
        0.7069278359413147
      ],
      "scale": [
        1.0000021457672119,
        1.0000021457672119,
        1
      ],
      "translation": [
        0.03799000009894371,
        0,
        0.15622000396251678
      ]
    },
    {
      "children": [
        10
      ],
      "name": "Bone.001_Armature.001",
      "rotation": [
        0.51208895444869995,
        0.51208394765853882,
        -0.4876115620136261,
        -0.48761656880378723
      ],
      "scale": [
        1,
        0.99999779462814331,
        0.99999779462814331
      ],
      "translation": [
        0.03799000009894371,
        0,
        0.15622000396251678
      ]
    },
    {
      "children": [
        11
      ],
      "name": "Bone.002_Armature.001",
      "rotation": [
        0,
        0.99965453147888184,
        0.026284035295248032,
        4.9982681957772002e-06
      ],
      "scale": [
        0.99999994039535522,
        1.0000017881393433,
        1.0000016689300537
      ],
      "translation": [
        0,
        1.214210033416748,
        0
      ]
    },
    {
      "children": [
        12
      ],
      "name": "Bone.003_Armature.001",
      "rotation": [
        0.02623412199318409,
        0,
        0,
        0.99965584278106689
      ],
      "scale": [
        1,
        0.99999642372131348,
        0.99999642372131348
      ],
      "translation": [
        0,
        1.1569499969482422,
        0
      ]
    },
    {
      "name": "Bone.004_Armature.001",
      "rotation": [
        0.033463753759860992,
        0,
        0,
        0.99943995475769043
      ],
      "scale": [
        1,
        0.99999964237213135,
        0.99999964237213135
      ],
      "translation": [
        0,
        0.65852999687194824,
        0
      ]
    },
    {
      "children": [
        14
      ],
      "name": "Bone.005_Armature.001",
      "rotation": [
        -0.17683982849121094,
        -0.13405153155326843,
        0.375864177942276,
        0.89971327781677246
      ],
      "scale": [
        0.99999707937240601,
        1.0000026226043701,
        0.99999403953552246
      ],
      "translation": [
        0.03799000009894371,
        0.0015699999639764428,
        0.15622000396251678
      ]
    },
    {
      "children": [
        15
      ],
      "name": "Bone.006_Armature.001",
      "rotation": [
        -0.04153987392783165,
        -0.15322548151016235,
        0.23736447095870972,
        0.95836043357849121
      ],
      "scale": [
        0.99999946355819702,
        0.99999445676803589,
        0.99999719858169556
      ],
      "translation": [
        0,
        0.51945000886917114,
        0
      ]
    },
    {
      "name": "Bone.007_Armature.001",
      "rotation": [
        -0.017860701307654381,
        0.0039181993342936039,
        -0.0043657757341861725,
        0.99982327222824097
      ],
      "scale": [
        0.99999797344207764,
        0.9999958872795105,
        0.99999982118606567
      ],
      "translation": [
        0,
        0.28040999174118042,
        0
      ]
    },
    {
      "children": [
        17
      ],
      "name": "Bone.008_Armature.001",
      "rotation": [
        -0.15412840247154236,
        -0.16839589178562164,
        0.89649176597595215,
        0.37972334027290344
      ],
      "scale": [
        1.0000025033950806,
        1.0000054836273193,
        0.99999392032623291
      ],
      "translation": [
        0.03799000009894371,
        0,
        0.15622000396251678
      ]
    },
    {
      "children": [
        18
      ],
      "name": "Bone.009_Armature.001",
      "rotation": [
        -0.04009610041975975,
        0.11611321568489075,
        -0.23761332035064697,
        0.96356105804443359
      ],
      "scale": [
        1.0000050067901611,
        0.99999541044235229,
        1
      ],
      "translation": [
        0,
        0.51945000886917114,
        0
      ]
    },
    {
      "name": "Bone.010_Armature.001",
      "rotation": [
        -0.017786893993616104,
        0.012345518916845322,
        0.004653650801628828,
        0.99975484609603882
      ],
      "scale": [
        1.0000014305114746,
        0.99999278783798218,
        0.99999749660491943
      ],
      "translation": [
        0,
        0.28040999174118042,
        0
      ]
    },
    {
      "matrix": [
        0,
        -1.1240800000000002,
        -0,
        0,
        1.1240600000000001,
        0,
        0.0072000000000000015,
        0,
        -0.0072000000000000015,
        -0,
        1.1240600000000001,
        0,
        -0.046980000000000008,
        -0,
        0.14715,
        1
      ],
      "name": "Cylinder"
    },
    {
      "mesh": 0,
      "name": "Cylinder_0",
      "skin": 0
    }
  ],
  "samplers": [
    {
      "magFilter": 9729,
      "minFilter": 9987,
      "wrapS": 10497,
      "wrapT": 10497
    }
  ],
  "scene": 0,
  "scenes": [
    {
      "name": "OSG_Scene",
      "nodes": [
        0
      ]
    }
  ],
  "skins": [
    {
      "inverseBindMatrices": 4,
      "joints": [
        7,
        8,
        9,
        10,
        11,
        12,
        13,
        14,
        15,
        16,
        17,
        18
      ],
      "skeleton": 7
    }
  ],
  "textures": [
    {
      "sampler": 0,
      "source": 0
    }
  ]
}

