<svg width="50" height="50" viewBox="0 0 50 50" fill="none" xmlns="http://www.w3.org/2000/svg">
<path fill-rule="evenodd" clip-rule="evenodd" d="M18.8233 26.33C18.7823 27.0462 18.7559 29.406 18.3165 29.8442C17.8506 30.3125 17.0127 29.8593 16.3506 30.2733C16.0752 30.4455 15.9961 30.7235 16.1104 31.1133C16.9483 31.1133 18.8643 31.2946 19.5147 30.8202C19.9131 30.5301 20.2882 29.7263 20.5548 29.258C20.5548 29.5239 20.5401 29.8623 20.5313 30.3246C20.4698 33.5578 18.6622 31.6904 17.959 32.6603C17.836 32.8295 17.795 33.0562 17.8272 33.3251C18.7208 33.3251 20.8653 33.5124 21.5508 33.032C22.2276 32.5606 23.4112 29.3245 23.8096 28.4059L25.5323 28.8501C25.8863 28.9317 28.0332 29.798 26.9063 29.8442C26.4229 29.8653 25.711 29.8261 25.3272 30.1584C25.0958 30.3579 25.0313 30.6449 25.043 30.9682C29.9959 30.8801 25.9552 30.8043 30.6622 31.3399C30.2931 31.7085 29.8185 31.9774 29.2472 32.1527C28.2716 32.4549 26.7657 32.2373 26.1651 32.8779C25.963 33.0954 25.9073 33.3523 25.96 33.6393C26.9649 33.6303 32.2765 33.3644 32.9239 32.7782C33.1759 32.5485 33.3429 32.1738 33.463 31.7115L33.9464 30.5603C35.2882 30.6177 37.2862 29.9016 38.382 28.7232L38.3556 28.7806C39.7003 29.7052 40.465 30.4606 40.8575 31.4275C41.7335 33.5789 41.2325 35.5097 40.0431 36.9117C37.9337 39.3985 35.5255 39.1689 32.7716 38.2926C30.1495 37.1897 27.7911 35.975 24.92 37.8666C23.8507 38.5736 23.2003 39.6493 23.3848 41C26.8331 33.6061 32.086 43.3992 39.838 39.4922C44.5519 37.1172 43.7199 29.7263 39.1642 27.0582C39.173 26.889 39.1642 26.7198 39.132 26.5446C38.9005 25.3178 38.5226 24.0487 38.0245 22.7434C36.6124 19.051 34.6642 15.5036 30.8644 13.9958C28.9015 13.2162 26.8565 13.2978 24.7471 14.0804C24.2637 14.2949 23.8272 14.452 23.4346 14.5518C23.1241 14.6333 22.8428 14.6787 22.588 14.6938C22.0196 14.724 21.5889 14.5246 21.1964 14.2315C21.9698 13.4912 22.7286 12.6602 22.5176 12.1133C22.2774 11.4788 21.1436 11.4365 20.0772 11.6299C20.4346 9.30925 17.6719 9.6235 16.667 11.5845C16.6729 11.6238 16.6788 11.6661 16.6846 11.7024C16.6085 11.6933 16.5323 11.6842 16.4532 11.6782C14.0713 11.4697 11.2471 12.5333 8.89456 13.5969C8.376 13.8326 6.87893 14.2708 7.00784 14.9083C7.47529 17.2385 8.0561 17.8867 9.68851 18.2261C10.5323 18.5584 11.3614 18.8606 12.2051 19.1325C13.7432 19.6251 14.3584 19.8033 14.8008 20.4772C15.4073 21.3957 15.9756 22.4744 16.6202 23.5139C17.1827 24.4053 18.9815 26.5415 18.8233 26.33Z" fill="white"/>
</svg>
