<svg width="50" height="50" viewBox="0 0 50 50" fill="none" xmlns="http://www.w3.org/2000/svg">
<path d="M6.70988 25.8458C7.0485 26.2835 7.33625 26.7669 7.71254 27.1678C8.05988 27.538 8.47555 27.8544 8.89668 28.1424C9.49353 28.5508 10.1271 28.9054 10.7358 29.297C10.8782 29.3888 10.9825 29.5389 11.1081 29.6583C11.559 30.0864 12.0818 30.3773 12.6972 30.4994C12.8529 30.5304 12.9997 30.6056 13.1522 30.6548C15.1095 31.2864 16.8789 32.3472 18.776 33.1157C19.3077 33.331 19.847 33.5319 20.3929 33.7084C21.1651 33.9585 21.9672 33.9522 22.7699 33.945C23.3636 33.9397 23.961 34.03 24.5509 33.9895C25.3949 33.9313 26.2309 33.7678 27.0743 33.6943C28.2431 33.5922 29.4135 33.5707 30.584 33.7325C30.9491 33.7829 31.3319 33.7411 31.7021 33.7003C31.9181 33.6767 31.9726 33.4098 31.7873 33.2726C31.3345 32.9371 30.9553 32.4856 30.3854 32.3283C30.0858 32.2458 29.7804 32.1428 29.4751 32.1345C29.0977 32.124 28.7881 32.0372 28.5645 31.6948C28.8356 31.4037 29.1972 31.2369 29.6137 31.1683C30.6905 30.9914 31.5507 30.4235 32.356 29.7155C33.1228 29.041 33.9135 28.3684 35.0357 28.3889C35.109 28.3904 35.1822 28.3579 35.2562 28.3475C35.7373 28.2798 36.1318 28.3293 36.4436 28.8101C36.6861 29.1838 37.0624 29.4868 37.4265 29.7577C37.5736 29.8671 37.8561 29.8559 38.0605 29.8156C38.7827 29.6737 39.4941 29.4784 40.2169 29.3394C40.5336 29.2787 40.8673 29.3122 41.1924 29.2891C41.59 29.2607 41.666 28.9718 41.6755 28.6482C41.6845 28.3344 41.6599 28.0847 41.2532 27.9732C40.468 27.7576 39.7458 27.9651 39.0077 28.1634C38.6968 28.247 38.4009 28.441 38.0505 28.1715C37.7917 27.9723 37.7213 27.7636 37.811 27.4938C38.1636 26.4336 38.6476 25.4335 39.2491 24.4928C39.3188 24.3837 39.4807 24.2922 39.6127 24.2705C40.8006 24.0734 41.9612 23.7827 43.0638 23.2904C43.3148 23.1783 43.5536 23.0368 43.7898 22.895C43.8838 22.8383 44.0037 22.7578 44.03 22.6652C44.2527 21.8839 44.925 21.3962 45.2892 20.7061C45.6012 20.1154 45.5549 19.212 45.0542 18.7616C44.0889 17.8932 43.1174 17.0264 42.0942 16.2286C40.9945 15.3712 39.7134 15.3756 38.4007 15.6161C37.6658 15.751 36.9103 15.9252 36.1768 15.8795C35.2017 15.8187 34.2407 15.5489 33.2701 15.3907C32.4217 15.2523 31.5716 15.1104 30.7166 15.032C29.862 14.9539 29.0108 15.0205 28.1641 15.2132C27.6078 15.34 27.0164 15.3125 26.4595 15.4378C24.9385 15.7803 23.4813 16.3039 22.0888 17.0215C21.0829 17.5396 20.2762 18.2907 19.4941 19.0731C18.8932 19.6743 18.3027 20.2978 17.7944 20.9763C17.337 21.5868 16.9749 22.2678 16.6111 22.9492C16.1121 23.8836 15.8432 24.8744 15.5074 25.8522C15.3702 26.2519 15.3048 26.6765 15.207 27.0899C15.1821 27.1949 15.1583 27.3003 15.1158 27.4852C14.6359 27.1967 14.2032 26.9886 13.8367 26.6971C13.6046 26.5124 13.5108 26.1593 13.2865 25.9581C12.5591 25.3054 12.3112 24.4049 11.9764 23.5489C11.7682 23.0175 11.6288 22.4574 11.3986 21.9367C11.0357 21.1152 10.7274 20.2379 10.2006 19.5293C9.69317 18.8467 8.99586 18.214 7.97957 18.423C7.72949 18.4745 7.46345 18.5729 7.26523 18.7272C6.53145 19.2986 5.89898 19.9657 5.37569 20.7458C4.91952 21.4258 4.93598 22.1393 5.12412 22.8638C5.41372 23.9789 6.01029 24.9419 6.70988 25.8458Z" fill="white"/>
</svg>
