<svg width="50" height="50" viewBox="0 0 50 50" fill="none" xmlns="http://www.w3.org/2000/svg">
<g clip-path="url(#clip0)">
<path d="M32.1192 11.6725C32.1092 11.6803 31.8781 11.6364 31.6135 11.5813C31.0721 11.4632 30.4156 11.3773 29.9309 11.3565C29.3402 11.33 28.6344 11.3914 27.2147 11.5937L25.8062 11.7959L25.3207 11.6333C24.9792 11.5189 24.6823 11.3934 24.3263 11.2108C23.8655 10.9745 23.7104 10.9151 22.6958 10.5752C21.4669 10.1635 20.8842 10.013 19.5769 9.76875C17.8353 9.44231 16.8181 9.31014 16.2876 9.33727C15.9012 9.35679 14.0404 9.64213 13.5276 9.76086C12.3167 10.0405 11.1111 10.482 10.3175 10.9275C9.60559 11.3296 9.05448 11.7073 7.84258 12.6346C6.55465 13.6221 6.1677 13.999 5.86983 14.5547C5.77016 14.741 5.6606 14.8235 4.96312 15.2602C4.22316 15.7237 3.92016 15.9722 3.6527 16.3482C3.58891 16.4385 3.51172 16.5356 3.48153 16.559C3.38759 16.6504 3.38297 16.7532 3.46981 16.9275C3.55 17.0772 3.57787 17.1052 3.72186 17.1534C3.90267 17.214 4.21651 17.1888 4.70915 17.0745C4.86666 17.0379 5.21182 16.9748 5.48101 16.9383C6.40251 16.8001 7.08575 16.9284 8.59467 17.5158C10.5188 18.2647 11.0769 18.4442 11.749 18.5166C11.8897 18.5302 12.3621 18.5209 12.7988 18.4959C14.2517 18.4165 14.2897 18.4367 15.7827 19.9833C17.1307 21.3846 17.7642 21.9171 18.7115 22.469C19.6599 23.0176 20.276 23.1905 21.9475 23.3706C22.393 23.4192 22.8686 23.478 23.0037 23.4972C23.2605 23.5423 23.5866 23.5249 23.5722 23.4679C23.5666 23.4511 23.4908 23.3885 23.4037 23.337C23.1293 23.1668 22.5727 22.716 21.637 21.9072C20.5797 20.9944 20.3533 20.7808 20.0925 20.4476C19.776 20.0473 19.5078 19.4249 19.5717 19.234C19.5919 19.1738 19.6209 19.1649 19.7616 19.1897C20.1557 19.2584 20.7628 19.5362 22.0515 20.2361C23.867 21.2204 24.4862 21.5954 25.4489 22.2903C26.6704 23.1688 28.2696 24.6095 29.002 25.4917C29.4267 26.0026 30.5145 27.4247 30.8064 27.854C31.4639 28.8153 32.1299 30.0068 32.682 31.2159C33.1372 32.2026 33.2496 32.4898 33.5942 33.5288C33.7488 34.0014 33.9622 34.6316 34.069 34.9355C34.3047 35.6103 34.7126 36.9052 34.787 37.2057C34.817 37.3275 34.8424 37.485 34.8479 37.5576C34.8566 37.7206 34.74 38.0465 34.5978 38.2596C33.8927 39.2971 33.6564 39.7468 33.3884 40.5359C33.1091 41.3697 32.9897 42.0708 33.0052 42.847C33.0092 43.1686 33.0676 43.7058 33.1011 43.717C33.1312 43.7271 33.3806 43.4829 33.5238 43.3C33.629 43.1639 33.7934 43.029 34.0952 42.8285C34.7938 42.3661 35.1383 42.0271 35.36 41.5986C35.425 41.4714 35.5034 41.3375 35.5347 41.2996C35.5895 41.236 35.5928 41.2372 35.6954 41.3311C36.4438 41.9989 37.3811 42.4582 39.5442 43.2163C40.8501 43.6761 41.6091 43.9006 41.8291 43.8886L41.9397 43.881L41.7123 43.5813C41.4303 43.2113 41.3379 43.0649 40.8378 42.1897C39.9066 40.5669 39.5858 40.0572 39.1544 39.5328C38.6985 38.9816 38.2434 38.5722 37.4826 38.0305C36.9695 37.6612 36.7476 37.4677 36.6551 37.299C36.5493 37.1034 36.5419 36.8253 36.6303 36.0058C36.8795 33.6164 36.9803 31.1474 36.8935 29.4834C36.7785 27.1917 36.3941 25.0928 35.747 23.189C35.1722 21.4918 34.6043 20.3966 33.0935 18.0805C32.7526 17.5529 32.7236 17.4948 32.6159 17.0826C32.4749 16.5586 32.4428 16.3542 32.4566 16.0907C32.483 15.5782 32.6377 15.2277 32.99 14.8653C33.3289 14.5208 33.5389 14.4608 34.6211 14.3876C35.2767 14.3428 35.5872 14.2829 35.8811 14.1505C36.2275 13.9947 36.2723 13.95 36.1999 13.8327C36.0951 13.6673 35.6446 13.2556 35.3456 13.0586C35.0622 12.8706 34.6628 12.6623 34.049 12.371C33.7265 12.222 32.1595 11.6524 32.1192 11.6725Z" fill="white"/>
</g>
<defs>
<clipPath id="clip0">
<rect width="50" height="50" fill="white"/>
</clipPath>
</defs>
</svg>
