<svg width="50" height="50" viewBox="0 0 50 50" fill="none" xmlns="http://www.w3.org/2000/svg">
<path d="M27.8989 5.51422C27.4154 5.55687 26.9286 5.73078 26.3426 6.06547C26.0512 6.23281 25.968 6.305 25.4364 6.84968C25.1162 7.18109 24.812 7.50594 24.7671 7.57156C24.7191 7.64047 24.6198 7.75859 24.5494 7.84062C24.2804 8.1425 24.0691 8.51328 23.8801 9.00547C23.5279 9.93406 23.419 10.6067 23.3806 12.1062C23.3518 13.2022 23.3262 13.4384 23.2045 13.678C23.1084 13.8748 23.0636 13.9077 23.0091 13.8289C22.9451 13.7403 22.9259 13.7862 22.9611 13.9405C22.9867 14.0684 22.9867 14.075 22.9131 14.075C22.7818 14.075 22.5961 14.1702 22.5384 14.2686C22.5096 14.3178 22.4904 14.4162 22.4904 14.4884C22.4968 14.5869 22.468 14.6623 22.3783 14.8067C22.2598 14.997 22.0197 15.4728 21.9364 15.6828C21.8563 15.8928 21.4529 16.5819 21.2351 16.8805C21.0654 17.1134 20.6267 17.622 20.0375 18.2619C20.0183 18.2848 19.9062 18.4161 19.7877 18.5572C19.6693 18.7016 19.4227 18.9936 19.2402 19.2102C19.0576 19.4267 18.8687 19.6662 18.8143 19.7417C18.763 19.8139 18.5773 20.037 18.4012 20.2339C18.2219 20.4275 18.0137 20.6834 17.9369 20.8016C17.7992 21.0116 17.5206 21.3692 17.2196 21.7203C17.1363 21.8187 17.0274 21.9598 16.9826 22.032C16.9378 22.1009 16.8225 22.265 16.7232 22.3962C16.624 22.5242 16.4639 22.7441 16.3678 22.8852C16.2717 23.0262 16.1116 23.2395 16.0155 23.3609C15.7466 23.6956 15.2406 24.4831 14.9364 25.0508C14.5746 25.7169 14.3344 26.255 14.1743 26.757C14.1519 26.8292 14.0622 27.072 13.9725 27.2984C13.8829 27.5248 13.7932 27.7841 13.774 27.8727C13.7356 28.0433 13.521 28.5781 13.3417 28.9391C13.2809 29.0572 13.1976 29.2442 13.1496 29.3591C13.1047 29.4739 12.9671 29.7692 12.8454 30.0153C12.6084 30.4977 12.3907 30.9636 12.1729 31.4656C11.9968 31.8627 11.8719 32.0956 11.7246 32.3023C11.3756 32.7913 10.9241 33.477 10.9241 33.5197C10.9241 33.5558 10.7736 33.7822 10.6198 33.9758C10.5462 34.0644 10.3925 34.2875 10.274 34.4713C10.1587 34.655 10.0402 34.8223 10.0114 34.8453C9.98261 34.8683 9.90896 34.9864 9.84491 35.1045C9.78087 35.2227 9.71042 35.3441 9.69121 35.3703C9.66879 35.3966 9.60155 35.5147 9.5375 35.6328C9.47666 35.7509 9.3806 35.9281 9.32296 36.0266C9.20447 36.23 8.98993 36.7681 8.90347 37.07C8.83942 37.2997 8.82341 37.513 8.85864 37.7164C8.87465 37.8116 8.85864 37.9527 8.7978 38.2053C8.75296 38.3989 8.71454 38.5958 8.71454 38.645C8.71454 38.7303 8.71774 38.727 8.85544 38.5892C8.93229 38.5105 9.00274 38.4613 9.01234 38.4777C9.02195 38.4908 8.97712 38.5925 8.91628 38.7008C8.8074 38.8878 8.75296 39.0453 8.7978 39.0453C8.84903 39.0453 9.18526 38.6942 9.24931 38.5761C9.32616 38.4317 9.37739 38.3694 9.39981 38.3923C9.40621 38.3989 9.3934 38.5367 9.36779 38.7008C9.34537 38.8616 9.32616 39.0092 9.32296 39.0289C9.31975 39.1077 9.42863 38.937 9.5279 38.7008C9.58874 38.5564 9.64958 38.4383 9.66239 38.4383C9.6784 38.4383 9.70402 38.5006 9.72323 38.5761C9.77447 38.7861 9.78727 38.7697 9.79048 38.5006C9.79368 38.2184 9.84491 38.1167 9.90255 38.2841C9.94738 38.4186 9.9698 38.4153 10.037 38.2742C10.1011 38.1331 10.1395 38.1266 10.1491 38.2578C10.1587 38.3989 10.2132 38.5269 10.2836 38.5761C10.3252 38.6056 10.3477 38.6614 10.3477 38.7238V38.8222L10.4085 38.7467L10.4693 38.668L10.4918 38.7927C10.5046 38.8583 10.527 38.9141 10.5398 38.9141C10.5526 38.9141 10.5814 38.8255 10.6038 38.7172C10.6262 38.6056 10.6615 38.5203 10.6839 38.5203C10.7063 38.5203 10.7575 38.5991 10.796 38.6909C10.8664 38.8583 10.8696 38.8616 10.8984 38.7828C10.9721 38.5827 11.0393 38.4711 11.0938 38.4613C11.145 38.4514 11.1514 38.4613 11.1322 38.5531C11.1066 38.6713 11.1162 38.6713 11.2955 38.5334C11.3499 38.4908 11.4044 38.4678 11.4172 38.4777C11.4268 38.4908 11.4364 38.5597 11.4364 38.6319V38.7664L11.5165 38.668C11.5613 38.6122 11.6125 38.5072 11.6317 38.4284C11.6766 38.2644 11.8623 38.0905 11.9231 38.1528C11.952 38.1823 11.952 38.2217 11.9199 38.3103C11.8975 38.3727 11.8847 38.435 11.8943 38.4448C11.952 38.5006 12.6308 38.1594 12.7461 38.0183C12.7685 37.9888 12.8614 37.9198 12.9542 37.8673C13.0855 37.7919 13.1944 37.7623 13.5018 37.7197C14.2287 37.6245 14.4849 37.6213 14.9428 37.7C15.1734 37.7427 15.4456 37.7853 15.5512 37.7984C15.6569 37.8148 15.7882 37.8411 15.8394 37.8608C16.1725 37.9789 17.1523 37.9986 17.7351 37.8969C17.9433 37.8575 18.161 37.8378 18.2187 37.8477C18.3371 37.8706 18.3435 37.9002 18.2891 38.3005C18.2635 38.4875 18.2667 38.6089 18.3019 38.8452C18.3275 39.0092 18.3563 39.1569 18.366 39.17C18.3756 39.1864 18.398 39.4227 18.4172 39.6983L18.4524 40.197L18.3756 40.3348C18.3307 40.4136 18.2827 40.5317 18.2699 40.6039C18.2475 40.7352 18.2475 40.7352 18.3147 40.6761C18.4012 40.5973 18.4268 40.64 18.4524 40.9255C18.4748 41.1781 18.5549 41.293 18.7854 41.4144C18.8559 41.4505 19.0352 41.5588 19.1857 41.6506C19.4419 41.8114 19.6917 41.9066 20.0983 42.0017C20.188 42.0214 20.6555 42.0509 21.1391 42.0673C23.1821 42.1395 23.4895 42.1592 23.8449 42.2248C24.0402 42.2642 24.3541 42.32 24.543 42.3495C24.9209 42.4086 24.9817 42.3988 25.0137 42.2577C25.0297 42.192 25.0521 42.1789 25.145 42.1822C25.2026 42.1822 25.2923 42.1953 25.3435 42.2084C25.4172 42.2314 25.43 42.2248 25.43 42.1658C25.43 42.0444 25.1578 41.7786 24.9529 41.7031C24.7159 41.6113 24.6295 41.5522 24.6295 41.4734C24.6295 41.4308 24.6519 41.4144 24.7031 41.4144C24.7415 41.4177 24.8632 41.4177 24.9721 41.4144C25.145 41.4078 25.1866 41.3947 25.2795 41.3094C25.4044 41.2011 25.5197 41.1847 25.6349 41.2634C25.8111 41.3783 25.7694 41.1256 25.5869 40.9813C25.5133 40.9189 25.4716 40.8631 25.4844 40.8336C25.494 40.8073 25.5133 40.7844 25.5325 40.7844C25.5485 40.7844 25.5869 40.7614 25.6125 40.7319C25.6542 40.6925 25.7182 40.6827 25.9039 40.6925C26.1761 40.7023 26.237 40.6597 26.0672 40.5711C26.0032 40.535 25.8399 40.5055 25.6253 40.4923C25.4364 40.4792 25.2635 40.4563 25.2379 40.4398C25.2155 40.4234 25.0329 40.4136 24.8376 40.4202C24.495 40.4234 24.4789 40.4234 24.4053 40.3414C24.2452 40.1675 23.5855 40.0002 23.2877 40.0592C22.9643 40.1216 22.6953 40.1314 22.3879 40.092C22.2214 40.0691 22.0165 40.0559 21.9332 40.0592C21.8467 40.0625 21.7379 40.0428 21.6866 40.0133C21.6322 39.987 21.5617 39.9641 21.5297 39.9641C21.4016 39.9641 21.1711 39.6228 21.1711 39.4358C21.1711 39.3997 21.1423 39.3144 21.1102 39.2488C20.9854 39.0059 20.7868 38.5466 20.7868 38.5006C20.7868 38.4744 20.7708 38.4547 20.7548 38.4547C20.7356 38.4547 20.7036 38.4153 20.6843 38.3628C20.6619 38.3136 20.6171 38.2513 20.5819 38.2184C20.5242 38.1692 20.521 38.1528 20.5563 37.9953C20.5787 37.9034 20.5947 37.7853 20.5947 37.7394C20.5947 37.6902 20.6523 37.5392 20.7228 37.4047C20.7932 37.2702 20.8989 37.0536 20.9597 36.9289C21.075 36.6795 21.1423 36.6106 21.5682 36.2727C22.2726 35.7181 23.4735 34.4647 24.1267 33.5984C24.2292 33.4639 24.4213 33.2178 24.5494 33.057C24.6807 32.893 24.7896 32.7486 24.7896 32.7322C24.7896 32.7158 24.8728 32.6042 24.9753 32.4861C25.1866 32.2433 25.4908 31.8397 25.7438 31.4689C25.8399 31.3311 25.9616 31.167 26.0192 31.1047C26.0768 31.0423 26.1505 30.9505 26.1857 30.9045C26.4035 30.6027 27.0535 29.7134 27.1624 29.5691C27.2328 29.4772 27.3033 29.3984 27.3161 29.3984C27.3289 29.3984 27.3609 29.4608 27.3833 29.5363C27.4058 29.615 27.4442 29.743 27.4666 29.825C27.505 29.953 27.5467 30.2319 27.5883 30.6125C27.5947 30.6748 27.6171 30.8455 27.6363 30.9898C27.7164 31.5477 27.7356 31.7248 27.7516 32.0563C27.758 32.2466 27.7804 32.4467 27.7964 32.4992C27.8156 32.555 27.8413 32.7453 27.8605 32.9258C27.9117 33.4541 27.9501 33.5919 28.0654 33.6673C28.1903 33.7428 28.2479 33.7461 28.4721 33.6805C28.5682 33.6509 28.7667 33.5984 28.9108 33.5656C29.2566 33.4803 29.4103 33.4147 29.6249 33.267C29.9163 33.0636 30.0476 32.8963 30.3774 32.3056C30.4767 32.1219 30.6816 31.6067 30.6816 31.5313C30.6816 31.5017 30.7072 31.4263 30.7424 31.3606C30.8001 31.2392 30.8994 30.747 30.9698 30.2188C30.9922 30.0645 31.0146 29.615 31.021 29.218C31.0338 28.378 30.9634 27.5577 30.8129 26.8719C30.7649 26.6455 30.6976 26.337 30.6688 26.1828C30.6112 25.8908 30.4254 25.0377 30.3422 24.6734C30.3133 24.5553 30.2749 24.4142 30.2493 24.3617C30.07 23.9516 30.054 23.8105 30.1532 23.5742C30.1949 23.4758 30.3422 22.9737 30.3998 22.7211C30.419 22.6489 30.4542 22.5144 30.4799 22.4225C30.5055 22.3273 30.5439 22.1206 30.5695 21.9566C30.5919 21.7958 30.6272 21.635 30.6432 21.6022C30.6752 21.5366 30.6912 21.4611 30.8257 20.7523C30.8705 20.5161 30.9186 20.2503 30.9378 20.1617C31.0531 19.5416 31.0819 18.7114 31.0178 17.8156C30.973 17.2184 30.9666 16.8936 30.9858 16.3719C31.0114 15.6172 31.0178 14.2227 30.9954 13.8453C30.9858 13.6944 30.9602 13.5631 30.9282 13.5172C30.8225 13.3498 30.6208 12.838 30.6015 12.6805C30.5759 12.4934 30.4222 12.185 30.2013 11.8766C30.0059 11.6009 29.9771 11.5419 29.9771 11.4106C29.9771 11.2958 30.0668 11.0694 30.1404 10.9906C30.166 10.9644 30.2205 10.8955 30.2589 10.8364C30.2973 10.7806 30.4542 10.6428 30.608 10.528C30.9986 10.2458 31.5078 9.81922 31.543 9.74703C31.6102 9.62234 32.5837 9.33687 33.2914 9.23515C33.554 9.19578 33.7621 9.18594 33.9639 9.19906C34.2713 9.22203 34.473 9.1925 35.0366 9.04156C35.597 8.89062 35.9332 8.72 35.9812 8.55922C36.0069 8.48047 35.9204 8.13594 35.8243 7.91937C35.7315 7.71265 35.6194 7.62078 35.2191 7.43047C34.8829 7.26968 34.7068 7.23359 34.124 7.20078C33.9318 7.19093 33.7077 7.16468 33.6276 7.145C33.5187 7.11875 33.4419 7.11875 33.3234 7.15156C33.1313 7.20078 33.0704 7.20406 32.7758 7.17781C32.4812 7.15156 32.2827 7.05968 32.0585 6.8464C31.4918 6.31156 30.5279 5.77672 29.849 5.6225C29.263 5.49125 28.5842 5.45187 27.8989 5.51422Z" fill="white"/>
</svg>
