<svg width="50" height="50" viewBox="0 0 50 50" fill="none" xmlns="http://www.w3.org/2000/svg">
<path d="M16.8917 11.0611C17.1631 11.1939 17.076 11.5717 16.4359 13.1391C15.9238 14.3848 15.7651 14.8494 15.7651 15.1251C15.7651 15.3089 16.1082 16.1513 16.185 16.1513C16.2055 16.1513 16.3335 16.0747 16.4666 15.9777C16.9121 15.6663 18.0848 15.0383 18.8478 14.6962C20.635 13.9049 22.2481 13.5118 24.1786 13.3943C26.017 13.282 30.1598 13.3586 31.2044 13.522C31.4554 13.5628 31.9726 13.6445 32.3515 13.7007C33.7598 13.9253 35.1526 14.3338 35.5521 14.6401C35.6493 14.7116 35.7466 14.7779 35.7722 14.783C35.803 14.7933 35.9617 14.6146 36.1307 14.3899C36.6018 13.767 37.0064 13.4148 37.8411 12.9195C38.517 12.5213 38.6143 12.4754 38.8448 12.4754C39.1674 12.4754 39.321 12.6081 39.4541 13.0216C39.5361 13.2667 39.5514 13.476 39.5514 14.2368C39.5514 15.0434 39.5361 15.2017 39.4388 15.5131C39.3312 15.8552 39.0854 16.2738 38.7782 16.6517C38.6399 16.8201 38.6399 16.8201 38.7423 16.9325C38.9933 17.2184 39.2186 17.7595 39.2186 18.0863C39.2186 18.1986 39.3056 18.4386 39.449 18.7296C39.577 18.9798 39.7153 19.3474 39.7563 19.5465C39.8997 20.2306 39.828 21.5631 39.6231 22.0839C39.5668 22.2269 39.531 22.3494 39.5361 22.3545C39.5463 22.3596 39.8484 22.4055 40.2172 22.4515C42.2194 22.7119 43.3511 23.1305 44.3906 24.0036C45.1383 24.6315 45.5838 25.1268 45.804 25.5761C45.9679 25.9028 45.9935 25.9998 45.9986 26.3419C46.0037 26.735 46.0037 26.7401 45.8347 26.8524C45.0256 27.4038 42.0709 27.5978 39.8331 27.2507C38.3685 27.026 37.1805 26.5614 36.4738 25.9437L36.3048 25.7956L35.9515 26.0968C35.5008 26.4797 35.2346 26.6635 34.789 26.8882C34.5893 26.9903 34.3487 27.1537 34.2514 27.2609C33.857 27.6744 33.1196 28.0267 32.1262 28.282C31.778 28.3739 31.44 28.4964 31.2301 28.6189C31.0457 28.721 30.7231 28.864 30.508 28.9355C30.1342 29.0631 29.3405 29.2214 29.0998 29.2214C29.0332 29.2214 28.8079 29.2775 28.5979 29.3439C28.1524 29.492 27.5789 29.5788 27.077 29.5788C26.8824 29.5788 26.4881 29.6145 26.1963 29.6554C25.4896 29.7626 24.0506 29.7626 23.3439 29.6554C22.4888 29.5226 22.4632 29.5175 22.1815 29.5635L21.9152 29.6043L22.3761 30.217C23.3132 31.4627 23.8765 32.3562 24.0557 32.8871C24.1172 33.0607 24.2554 33.653 24.363 34.1992L24.5678 35.1897L25.085 35.7666C25.7098 36.4508 25.9863 36.8337 26.3396 37.4719C26.5598 37.8701 26.6571 37.9875 26.9132 38.1713C27.3024 38.4623 27.7376 38.8861 27.9373 39.1771C28.1575 39.4988 28.6287 40.7037 28.5928 40.8466C28.5518 41.0151 28.3624 41.0406 27.8656 40.9436C27.1897 40.8058 26.314 40.4892 25.3667 40.0246C24.6907 39.6928 24.1582 39.3762 23.0111 38.6155C21.1727 37.3902 20.4507 36.849 19.744 36.17C18.5713 35.0366 18.1002 34.1482 17.7673 32.4327C17.5266 31.1717 17.583 30.508 18.008 29.6707L18.2589 29.1754L17.6086 28.7364C16.7892 28.185 16.1338 27.6642 15.9853 27.4396C15.847 27.2405 15.6371 26.6074 15.55 26.1275C15.5142 25.9488 15.4629 25.8007 15.4373 25.8007C15.4117 25.8007 14.9253 26.0611 14.362 26.3776C13.7935 26.6942 13.2405 26.9954 13.1278 27.0464C12.4109 27.3681 10.9566 27.8327 10.296 27.945C10.0656 27.9859 9.86073 27.9859 9.55348 27.945C9.10284 27.8837 8.09403 27.6336 7.81239 27.5213C7.67412 27.46 7.56147 27.46 7.16204 27.511L6.67556 27.5723L6.51169 27.4191C6.30174 27.2251 6.14811 26.8678 6.05081 26.347C5.89719 25.525 6.08666 24.9226 6.69092 24.3252C7.42832 23.59 8.34496 23.1407 9.9273 22.7323C10.4547 22.5945 10.5981 22.5791 11.2946 22.5791C11.7196 22.5791 12.1241 22.5945 12.1907 22.6098C12.2829 22.6353 12.4724 22.5281 13.0715 22.1145L13.8345 21.5887L13.9216 21.267L14.0086 20.9505L13.6706 20.7718C13.1893 20.5165 12.6567 20.0979 12.3699 19.7456C12.0781 19.3831 11.6274 18.4947 11.4175 17.8617C11.1409 17.0192 11.0385 16.4117 11.0385 15.5897C11.0385 14.7626 11.1461 14.2419 11.397 13.8079C11.5916 13.4709 12.288 12.8072 12.8001 12.46C13.7116 11.8576 15.0277 11.2909 15.9545 11.102C16.5537 10.9794 16.7124 10.9692 16.8917 11.0611Z" fill="white"/>
</svg>
