<svg width="50" height="50" viewBox="0 0 50 50" fill="none" xmlns="http://www.w3.org/2000/svg">
<path d="M41.4165 8.01161C41.4078 8.02031 41.2858 8.04063 41.1434 8.05804C40.3968 8.1509 39.8099 8.33662 38.9993 8.74288C38.5518 8.96632 38.1451 9.21008 37.0904 9.88621C36.6517 10.1706 35.9835 10.5827 35.6087 10.8061C32.128 12.8751 31.8055 13.0841 30.9019 13.8182C29.9373 14.6076 29.8647 14.6569 28.4236 15.5536C27.4358 16.1688 27.2411 16.3284 26.1807 17.3904C25.6693 17.9012 25.1318 18.4264 24.9836 18.557C24.4142 19.059 23.8592 19.4189 23.4293 19.5639C23.1242 19.6655 22.7988 19.6713 22.3601 19.5814C22.0405 19.5175 21.686 19.503 21.5669 19.5465C21.5291 19.561 21.4855 19.5639 21.471 19.5552C21.4536 19.5436 21.3257 19.3637 21.1834 19.1577C20.2827 17.8373 19.6871 17.2279 18.9026 16.8362C18.3129 16.5402 17.511 16.4096 16.6539 16.4706C15.9566 16.5199 15.4743 16.6156 14.1785 16.961C13.4115 17.167 12.7374 17.3237 12.4643 17.3585C12.3481 17.373 12.0663 17.3295 11.0261 17.1293C8.62627 16.6679 8.04809 16.5924 6.76681 16.5692C5.89229 16.5547 5.27344 16.5808 5.05844 16.6447C5.00905 16.6592 4.98871 16.6737 5.00615 16.6737C5.43905 16.7027 7.34499 17.0132 8.18174 17.1873C9.27708 17.4166 9.8814 17.5791 11.2469 18.0143C12.3016 18.351 12.5805 18.4525 12.9321 18.6295C13.1819 18.7572 13.2633 18.8182 13.516 19.0706C13.978 19.5291 14.3208 20.1066 14.6869 21.0439C14.7857 21.2993 14.9223 21.6446 14.9862 21.8129C15.3261 22.6864 15.8898 23.6121 16.6684 24.5842C17.1391 25.1704 17.3192 25.4605 17.8422 26.4849C18.4814 27.7356 18.6063 27.93 19.4314 28.9892C19.658 29.2794 19.9312 29.6537 20.0416 29.8221C20.2769 30.1761 20.5442 30.6984 20.5239 30.7565C20.5151 30.7768 20.3321 30.9015 20.12 31.0321C18.0949 32.2625 16.9095 33.6003 16.3488 35.2921C16.2704 35.53 16.1948 35.7796 16.1832 35.8405L16.1629 35.9537L16.2994 35.9363C16.372 35.9247 16.5551 35.8666 16.7033 35.8028C17.0577 35.6548 17.2175 35.6287 17.2175 35.7216C17.2175 35.7361 17.142 35.8695 17.0461 36.0146C16.7933 36.4093 16.5493 36.8591 16.2936 37.4104C16.0031 38.0314 16.006 38.0256 16.0902 38.0518C16.221 38.0924 16.6916 38.0721 17.1943 38.0053C17.5952 37.9502 17.7202 37.9444 17.7463 37.9705C17.7899 38.014 17.726 38.1707 17.4064 38.8178C17.1275 39.3808 17.0635 39.5375 16.9851 39.8451C16.895 40.202 16.8979 40.2107 17.081 40.2107C17.4587 40.2107 17.8974 40.0134 18.5424 39.5578C19.0479 39.198 19.2658 39.0674 19.3239 39.0906C19.3559 39.1022 19.3472 39.1516 19.2745 39.346C18.9869 40.1208 18.891 40.6228 18.9114 41.2409C18.9172 41.4789 18.9346 41.6994 18.9462 41.7313C18.9666 41.7748 18.9898 41.7807 19.0944 41.7661C19.1641 41.7574 19.2978 41.7168 19.3966 41.6791C19.7162 41.5485 19.9544 41.3628 20.3902 40.8985C21.0497 40.1991 21.2822 39.9931 21.3403 40.054C21.3548 40.0686 21.3722 40.4052 21.3809 40.8056C21.3897 41.3251 21.4071 41.5746 21.4361 41.6849C21.4623 41.769 21.4884 41.8445 21.4972 41.8561C21.532 41.888 21.6802 41.769 21.9591 41.4818C22.2003 41.2322 22.2497 41.1945 22.3223 41.2032C22.4036 41.2119 22.4036 41.2119 22.4036 41.4295C22.4066 41.711 22.4095 41.7255 22.4647 41.7139C22.4908 41.7081 22.5518 41.6036 22.6099 41.4585C22.7552 41.1016 23.098 40.4284 23.3624 39.9931C23.6559 39.5056 24.0016 38.9978 24.7541 37.9618C25.0911 37.4975 25.5008 36.9171 25.6693 36.6705C25.8349 36.4238 25.9831 36.2091 25.9947 36.1946C26.0092 36.1771 26.0441 36.1888 26.079 36.2207C26.1313 36.2671 26.14 36.2671 26.2068 36.2236C26.3288 36.1452 26.57 35.7564 27.0465 34.8713C27.215 34.5608 27.369 34.3054 27.3922 34.3054C27.4184 34.3054 27.4271 34.3403 27.4213 34.4273C27.4009 34.6566 27.4677 34.555 27.6014 34.1516C28.0256 32.8632 28.197 31.656 28.1621 30.2022C28.136 29.1749 28.0169 28.3624 27.7641 27.5006L27.6508 27.1088L27.7438 26.9492C27.8861 26.7054 28.3161 26.2905 28.6502 26.0728C28.9815 25.8552 29.2633 25.713 30.0274 25.3648C31.207 24.825 31.7183 24.4797 32.0815 23.9719C32.189 23.821 32.2616 23.76 32.5493 23.583C33.3308 23.0984 33.8538 22.6951 34.432 22.1292C34.7922 21.7781 34.8533 21.7316 34.9549 21.7171C35.1874 21.691 35.4082 21.5691 35.6058 21.3573C35.8295 21.1193 36.7679 20.0602 36.8289 19.9789C36.9219 19.8483 37.4826 19.3753 37.962 19.0184C38.2409 18.8095 38.5954 18.5483 38.7436 18.4351C39.1126 18.1594 39.5832 17.7038 39.8041 17.4108C39.9987 17.1525 40.2253 16.752 40.1934 16.7201C40.1585 16.6853 37.2822 17.1206 36.7534 17.2425C36.5064 17.3005 36.4106 17.3005 36.4309 17.2425C36.4425 17.2192 36.5529 17.0538 36.6808 16.8739C37.0759 16.3139 37.2531 15.9308 37.4536 15.1995L37.5611 14.8078L37.8284 14.5553C38.1712 14.2303 38.3078 13.9633 38.3107 13.6151C38.3107 13.5019 38.3252 13.4845 38.5722 13.2669C38.7174 13.1392 38.9731 12.8838 39.1387 12.701C39.6036 12.1845 40.6931 10.8438 40.7512 10.7132C40.7803 10.6494 40.818 10.4927 40.8355 10.365C40.8761 10.0661 40.9924 9.83108 41.3265 9.37839C41.6403 8.94891 41.7245 8.80672 41.8146 8.54555C41.893 8.3105 41.8988 8.23505 41.8494 8.09576C41.8146 8 41.8146 8 41.6228 8C41.5153 8 41.4224 8.0058 41.4165 8.01161Z" fill="white"/>
</svg>
