<svg width="50" height="50" viewBox="0 0 50 50" fill="none" xmlns="http://www.w3.org/2000/svg">
<path fill-rule="evenodd" clip-rule="evenodd" d="M17.1076 26.5442C17.0551 27.4452 17.0215 30.4141 16.4599 30.9653C15.8647 31.5545 14.7941 30.9843 13.948 31.5051C13.5961 31.7217 13.4951 32.0715 13.6411 32.5618C14.7117 32.5618 17.16 32.7899 17.991 32.1931C18.5001 31.8282 18.9793 30.817 19.32 30.2278C19.32 30.5623 19.3012 30.9881 19.29 31.5697C19.2114 35.6372 16.9017 33.2879 16.0032 34.5082C15.846 34.721 15.7936 35.0061 15.8348 35.3445C16.9765 35.3445 19.7168 35.5802 20.5928 34.9757C21.4575 34.3827 22.9699 30.3114 23.479 29.1558L25.6802 29.7146C26.1325 29.8173 28.8758 30.9072 27.4359 30.9653C26.8182 30.9919 25.9085 30.9425 25.4181 31.3606C25.1224 31.6115 25.04 31.9726 25.055 32.3794C31.3836 32.2686 26.2205 32.1732 32.235 32.8469C31.7634 33.3107 31.1569 33.649 30.4269 33.8695C29.1803 34.2497 27.2562 33.976 26.4888 34.7819C26.2305 35.0556 26.1593 35.3787 26.2267 35.7398C27.5107 35.7284 34.2977 35.3939 35.125 34.6564C35.447 34.3675 35.6603 33.8961 35.8138 33.3145L36.4315 31.8662C38.146 31.9384 40.6991 31.0375 42.0992 29.5549L42.0655 29.6272C43.7837 30.7904 44.7608 31.7407 45.2624 32.9572C46.3817 35.6638 45.7416 38.0929 44.2217 39.8567C41.5264 42.9853 38.4493 42.6964 34.9304 41.594C31.5799 40.2064 28.5664 38.6783 24.8978 41.058C23.5314 41.9475 22.7003 43.3008 22.9362 45C27.3423 35.698 34.0544 48.0183 43.9597 43.1031C49.983 40.1152 48.9198 30.817 43.0987 27.4604C43.1099 27.2475 43.0987 27.0346 43.0575 26.8141C42.7618 25.2708 42.2789 23.6742 41.6425 22.032C39.8381 17.3867 37.3487 12.9238 32.4933 11.027C29.9852 10.0462 27.3722 10.1488 24.6769 11.1334C24.0592 11.4033 23.5015 11.601 22.9998 11.7264C22.603 11.829 22.2436 11.8861 21.918 11.9051C21.1917 11.9431 20.6414 11.6922 20.1398 11.3235C21.1281 10.3921 22.0976 9.34674 21.8281 8.65869C21.5211 7.86039 20.0724 7.80717 18.7098 8.05046C19.1665 5.13099 15.6364 5.52634 14.3523 7.99344C14.3598 8.04286 14.3673 8.09608 14.3748 8.1417C14.2775 8.13029 14.1801 8.11889 14.0791 8.11128C11.0356 7.84899 7.42686 9.18708 4.42083 10.5252C3.75823 10.8217 1.8453 11.3729 2.01001 12.175C2.60731 15.1066 3.34946 15.922 5.43532 16.3489C6.51344 16.7671 7.57285 17.1472 8.65098 17.4893C10.6163 18.1089 11.4025 18.3332 11.9677 19.1809C12.7426 20.3366 13.4689 21.6937 14.2924 23.0013C15.0112 24.1228 17.3097 26.8103 17.1076 26.5442Z" fill="#FF8B00"/>
<path d="M33.0345 15.4556C27.5172 11.2741 22 12.668 22 12.668C22 12.668 28.2069 8.48649 34.4138 13.3649C40.6207 18.2432 42 28 42 28C42 28 38.5517 19.6371 33.0345 15.4556Z" fill="#FFBF31"/>
</svg>
