<svg width="50" height="50" viewBox="0 0 50 50" fill="none" xmlns="http://www.w3.org/2000/svg">
<path d="M15.0008 9.12988C14.9174 9.17385 14.7465 9.32616 14.4463 9.61772C14.3179 9.74412 14.3035 9.75108 14.1503 9.71469L13.9914 9.67394L14.1174 9.47381C14.2746 9.22113 14.4141 8.93244 14.4008 8.89075C14.3739 8.82527 14.3075 8.90025 14.2549 9.0577C14.1825 9.27644 13.9254 9.67736 13.8826 9.64458C13.8626 9.62929 13.6111 9.60305 13.3201 9.58701C12.6757 9.54768 11.9756 9.47469 11.3926 9.37891C10.9456 9.30642 10.7648 9.32978 10.6563 9.47147C10.6303 9.50547 10.5395 9.57082 10.4582 9.61196C10.1108 9.78196 9.90054 10.1513 9.92966 10.5331L9.94554 10.743L9.80603 10.807C9.72691 10.8453 9.66572 10.8838 9.66994 10.8961C9.67131 10.9061 9.73456 10.8826 9.81082 10.8421C9.88708 10.8016 9.95467 10.7725 9.96038 10.7768C9.96609 10.7812 9.98938 10.8395 10.0062 10.9063L10.0405 11.0269L9.82304 11.175C9.52062 11.375 9.50167 11.4234 9.79108 11.2405C10.0359 11.0863 10.0459 11.085 10.1149 11.1782C10.1576 11.2289 10.1489 11.2402 9.9234 11.4047C9.79371 11.5031 9.62646 11.6448 9.55282 11.7232L9.41925 11.8681L9.58936 11.7287C10.166 11.2533 10.3844 11.1868 10.0851 11.5779C9.92672 11.7847 9.6831 12.2094 9.72545 12.2014C9.73835 12.2023 9.82455 12.066 9.92022 11.9056C10.2334 11.3723 10.4288 11.3062 10.2579 11.7956C10.1725 12.0313 10.0664 12.4893 10.0965 12.4854C10.1066 12.4841 10.1468 12.3487 10.1881 12.1825C10.2271 12.0191 10.2972 11.8211 10.3378 11.7444C10.409 11.6101 10.414 11.6094 10.4501 11.6865C10.4663 11.7303 10.4731 11.7805 10.4579 11.8004C10.4059 11.8684 10.3189 12.4669 10.3095 12.8103C10.2965 13.2767 10.3179 13.302 10.3522 12.861C10.3776 12.4849 10.472 11.9594 10.524 11.8914C10.5436 11.8659 10.5672 11.8705 10.5906 11.9109C10.6076 11.9419 10.6701 12.0436 10.7261 12.136C10.8418 12.3279 10.8394 12.3665 10.5855 13.1653C10.5181 13.3834 10.4697 13.5531 10.4806 13.5389C10.5116 13.5043 10.7785 12.8008 10.8314 12.6075C10.8614 12.5092 10.8892 12.4316 10.8977 12.4381C10.9034 12.4425 10.9474 12.5211 10.9927 12.6097C11.067 12.761 11.0683 12.7889 10.9773 13.1147C10.9238 13.3029 10.8884 13.4556 10.8963 13.4572C10.9113 13.4552 11.045 13.0677 11.0949 12.8901C11.1169 12.8081 11.2558 13.0762 11.5469 13.7485L11.7186 14.1451L11.657 14.4799C11.5804 14.9111 11.5109 15.6938 11.4891 16.4142C11.4806 16.7268 11.4545 17.0034 11.4372 17.026C11.4176 17.0515 11.3274 17.2522 11.2321 17.4713C11.0167 17.9715 10.9148 18.4418 10.945 18.7571C10.96 18.8854 10.9584 19.1358 10.9465 19.311C10.9204 19.6999 10.9441 20.0237 11.0197 20.3153C11.0729 20.5178 11.0662 20.5621 10.9559 20.8776C10.804 21.3186 10.7612 21.5105 10.7443 21.7987C10.7384 21.9246 10.7212 22.0417 10.7104 22.0559C10.6518 22.1324 10.2134 22.2912 9.92341 22.3388C9.36856 22.4309 9.15427 22.4152 8.83551 22.2521C8.48958 22.0772 8.17276 21.947 7.56322 21.7321L7.08245 21.5618L6.62476 21.598C6.20006 21.6324 5.58481 21.6378 5.11318 21.6094C4.84797 21.5951 4.6185 21.7116 4.43127 21.9502C4.31848 22.0976 4.29952 22.146 4.31631 22.2128C4.35285 22.3306 4.46496 22.403 4.63119 22.4224C4.76374 22.4384 4.77515 22.4472 4.84754 22.5655C4.93762 22.7198 5.13308 22.8784 5.28412 22.9177C5.33995 22.9334 5.49065 23.0263 5.61841 23.1196C5.79754 23.2522 5.89116 23.3014 6.03295 23.3291C6.19838 23.3613 6.22624 23.3782 6.30513 23.488C6.38048 23.5906 6.41976 23.6162 6.55859 23.6595C6.68097 23.6948 6.76238 23.7481 6.87643 23.8534C7.17647 24.1415 7.67595 24.2991 8.46862 24.3576C8.8585 24.3864 8.93008 24.4053 9.4121 24.6034C10.4841 25.0421 11.3897 25.2724 12.2849 25.3329L12.7701 25.3673L12.8639 25.5109C14.0416 27.3608 15.1529 28.6293 16.9919 30.2303C17.7549 30.8952 20.0184 32.6099 20.5563 32.9362C21.547 33.5283 22.903 34.1933 25.0246 35.1117C25.568 35.348 25.6045 35.3713 26.2726 35.8468C27.9422 37.0305 29.4704 37.7779 31.2769 38.2978C32.3169 38.595 33.4128 38.7778 34.2079 38.7797C34.5277 38.7818 34.5936 38.7963 34.9676 38.9523C35.7128 39.262 36.5582 39.4822 37.5905 39.6298C37.8462 39.6682 38.1326 39.7436 38.4373 39.86C38.8815 40.0248 40.0674 40.3797 40.3818 40.4362C40.5 40.4592 40.6357 40.5361 40.9706 40.761C41.7074 41.2531 42.132 41.4613 42.606 41.5635C42.8638 41.617 42.9993 41.6174 43.3883 41.5646C43.8146 41.5044 43.8635 41.4879 43.9394 41.3887C44.05 41.2442 44.0945 40.8963 44.0291 40.6979C43.9995 40.6123 43.9606 40.5331 43.9406 40.5178C43.895 40.4829 43.9145 40.4573 44.0331 40.4088C44.1805 40.3464 44.2276 40.2611 44.1942 40.1097C44.1648 39.9884 44.1693 39.9648 44.2419 39.935C44.4512 39.839 44.6221 39.462 44.5205 39.3168C44.4508 39.2186 43.9484 38.8519 43.694 38.7111C42.8765 38.2652 42.1099 38.0603 40.5559 37.8729C39.3658 37.7305 39.0615 37.6548 38.7754 37.4313C38.6898 37.3658 38.3195 36.9565 37.9559 36.5209C36.2948 34.5573 35.9458 34.1913 35.2641 33.7099C35.0214 33.5421 34.6479 33.2967 34.4336 33.1686C33.485 32.6042 33.3231 32.4668 32.2919 31.3539C31.6439 30.6511 31.6254 30.628 30.7558 29.3691C29.803 27.9881 29.4696 27.5307 28.9907 26.9619C28.8157 26.747 28.54 26.3562 28.3434 26.0394C26.7188 23.4072 24.8047 21.0881 22.9562 19.5114C22.6553 19.254 22.1131 18.821 21.7506 18.5436L21.0898 18.0467L20.5033 17.3641C20.1787 16.9898 19.696 16.4495 19.4239 16.1603C19.1569 15.8705 18.9298 15.6113 18.9157 15.5825C18.9037 15.5509 18.83 15.2923 18.753 15.0086C18.2727 13.2882 17.6728 12.02 16.9862 11.2788C16.7078 10.9803 16.0941 10.5105 15.7304 10.3175C15.4774 10.1868 14.9061 9.9337 14.7515 9.88728C14.7171 9.87895 14.7065 9.85734 14.7239 9.83467C14.7781 9.76383 15.1096 9.60865 15.2237 9.60158C15.3421 9.58884 15.3682 9.53694 15.2695 9.50629C15.1872 9.48373 14.9794 9.57185 14.7913 9.71105C14.6055 9.84741 14.5933 9.85154 14.4802 9.80996C14.3966 9.77736 14.3966 9.77736 14.5662 9.59713C14.6579 9.50102 14.8107 9.36637 14.9087 9.29754C15.0881 9.16968 15.1555 9.04605 15.0008 9.12988Z" fill="white"/>
</svg>
