<svg width="50" height="50" viewBox="0 0 50 50" fill="none" xmlns="http://www.w3.org/2000/svg">
<path d="M27.2638 43.8645C24.38 43.3623 21.955 42.0807 19.3458 39.6803C16.4581 37.0234 14.2228 33.6448 13.3263 30.5824C13.02 29.5363 12.9795 29.4862 12.7158 29.8276C12.3279 30.3298 11.3304 32.2414 10.8032 33.4929L10.367 34.5282L10.2431 33.5872C10.175 33.0697 10.036 32.3491 9.93432 31.9859C9.83263 31.6226 9.72705 31.0283 9.69971 30.6651C9.66342 30.1831 9.56678 30.0178 9.342 30.053C8.97217 30.1111 8.58235 29.3556 8.58235 28.5807C8.58235 28.2112 8.48426 28.0236 8.29117 28.0236C8.13103 28.0236 8 27.9576 8 27.8771C8 27.5235 11.0917 24.636 11.8823 24.2511C12.3628 24.0173 12.7765 23.8092 12.8018 23.7888C12.8271 23.7683 12.9856 23.0456 13.1539 22.1829C13.778 18.985 15.3084 15.377 17.0456 13.0082C18.5069 11.0154 20.9409 8.9102 22.7805 8.04789C25.1998 6.91367 30.6638 5.63711 31.1357 6.09583C31.2953 6.25098 31.0868 6.90992 30.3448 8.59501C29.7905 9.85369 29.2856 11.1336 29.2227 11.4392C29.1113 11.9805 29.1224 11.9898 29.6481 11.7955C30.9622 11.3099 31.2896 10.9882 31.6143 9.86319C31.989 8.5651 32.1929 8.38135 32.4706 9.09122C32.6239 9.48324 32.6009 9.93778 32.3797 10.8901C32.025 12.4167 31.4797 13.5143 30.5699 14.533C29.7888 15.4075 27.829 18.3879 27.0129 19.9425L26.4514 21.0122L27.01 22.2099C27.906 24.1305 28.3346 25.9386 28.2154 27.2947C28.2004 27.4645 27.9043 27.7473 27.5573 27.9234C26.0652 28.6803 25.8588 28.8084 25.8588 28.9774C25.8588 29.0756 25.6311 29.1558 25.3528 29.1558C25.0064 29.1558 24.8786 29.075 24.9478 28.8998C25.0034 28.759 25.097 27.8462 25.1559 26.8715L25.2628 25.0992L24.9663 26.1369C24.8032 26.7077 24.622 28.236 24.5637 29.5332L24.4577 31.8917L26.4685 33.3042C27.9758 34.3629 28.3842 34.7345 28.0992 34.7879C27.8901 34.8271 27.3316 35.1467 26.858 35.4981C25.8779 36.2256 25.7538 36.2576 25.5838 35.8271C25.5165 35.6565 25.4196 35.5577 25.3685 35.6074C25.3173 35.6571 25.4465 36.1809 25.6554 36.7713C26.9173 40.3363 29.0662 42.3032 31.5852 42.199C33.0634 42.138 33.6704 40.7184 32.8854 39.1581C32.7032 38.7961 32.3144 38.3882 32.0212 38.2516C31.4893 38.0038 31.3027 37.4027 31.6861 37.1724C31.795 37.107 32.653 37.1444 33.5928 37.2554C35.7923 37.5153 37.1339 37.2834 39.0658 36.3089C40.7344 35.4671 41 35.4184 41 35.9544C41 37.7317 37.6712 41.676 35.2528 42.7641C33.011 43.7727 29.5071 44.2555 27.2638 43.8647L27.2638 43.8645Z" fill="white"/>
</svg>
