{
	"asset":{
		"version":"2.0",
		"generator":"Houdini GLTF 2.0 Exporter"
	},
	"accessors":[
		{
			"bufferView":0,
			"componentType":5123,
			"count":6000,
			"type":"SCALAR",
			"min":[0
			],
			"max":[1001
			]
		},
		{
			"bufferView":1,
			"componentType":5126,
			"count":1002,
			"type":"VEC3",
			"min":[-1.86602545,-0.997938752,-1
			],
			"max":[0.133974612,0.997938752,1
			]
		}
	],
	"buffers":[
		{
			"uri":"sphere_sin_data.bin",
			"byteLength":24024,
			"name":"main_buffer"
		}
	],
	"bufferViews":[
		{
			"buffer":0,
			"byteLength":12000,
			"target":34963
		},
		{
			"buffer":0,
			"byteOffset":12000,
			"byteLength":12024,
			"target":34962
		}
	],
	"nodes":[
		{
			"name":"sphere1",
			"mesh":0
		},
		{
			"name":"Dot"
		}
	],
	"meshes":[
		{
			"primitives":[
				{
					"attributes":{
						"POSITION":1
					},
					"indices":0
				}
			]
		}
	],
	"scenes":[
		{
			"nodes":[0
			]
		}
	],
	"scene":0
}
