{
    "asset" : {
        "generator" : "Khronos glTF Blender I/O v1.2.75",
        "version" : "2.0"
    },
    "scene" : 0,
    "scenes" : [
        {
            "name" : "Scene",
            "nodes" : [
                0,
                1,
                2
            ]
        }
    ],
    "nodes" : [
        {
            "name" : "Light",
            "rotation" : [
                0.16907575726509094,
                0.7558803558349609,
                -0.27217137813568115,
                0.570947527885437
            ],
            "translation" : [
                4.076245307922363,
                5.903861999511719,
                -1.0054539442062378
            ]
        },
        {
            "name" : "Camera",
            "rotation" : [
                0.483536034822464,
                0.33687159419059753,
                -0.20870360732078552,
                0.7804827094078064
            ],
            "translation" : [
                7.358891487121582,
                4.958309173583984,
                6.925790786743164
            ]
        },
        {
            "mesh" : 0,
            "name" : "biever_wip"
        }
    ],
    "materials" : [
        {
            "doubleSided" : true,
            "name" : "body",
            "pbrMetallicRoughness" : {}
        },
        {
            "doubleSided" : true,
            "name" : "teeth",
            "pbrMetallicRoughness" : {}
        }
    ],
    "meshes" : [
        {
            "name" : "null1",
            "primitives" : [
                {
                    "attributes" : {
                        "POSITION" : 0,
                        "NORMAL" : 1,
                        "TEXCOORD_0" : 2
                    },
                    "indices" : 3,
                    "material" : 0
                },
                {
                    "attributes" : {
                        "POSITION" : 4,
                        "NORMAL" : 5,
                        "TEXCOORD_0" : 6
                    },
                    "indices" : 7,
                    "material" : 1
                }
            ]
        }
    ],
    "accessors" : [
        {
            "bufferView" : 0,
            "componentType" : 5126,
            "count" : 29285,
            "max" : [
                -0.46794557571411133,
                1.5328896045684814,
                -21.431137084960938
            ],
            "min" : [
                -10.882169723510742,
                -2.4049859046936035,
                -26.19483184814453
            ],
            "type" : "VEC3"
        },
        {
            "bufferView" : 1,
            "componentType" : 5126,
            "count" : 29285,
            "type" : "VEC3"
        },
        {
            "bufferView" : 2,
            "componentType" : 5126,
            "count" : 29285,
            "type" : "VEC2"
        },
        {
            "bufferView" : 3,
            "componentType" : 5123,
            "count" : 165720,
            "type" : "SCALAR"
        },
        {
            "bufferView" : 4,
            "componentType" : 5126,
            "count" : 714,
            "max" : [
                -10.318758964538574,
                0.3937791883945465,
                -21.78873062133789
            ],
            "min" : [
                -10.62118148803711,
                0.022335171699523926,
                -22.12540054321289
            ],
            "type" : "VEC3"
        },
        {
            "bufferView" : 5,
            "componentType" : 5126,
            "count" : 714,
            "type" : "VEC3"
        },
        {
            "bufferView" : 6,
            "componentType" : 5126,
            "count" : 714,
            "type" : "VEC2"
        },
        {
            "bufferView" : 7,
            "componentType" : 5123,
            "count" : 3744,
            "type" : "SCALAR"
        }
    ],
    "bufferViews" : [
        {
            "buffer" : 0,
            "byteLength" : 351420,
            "byteOffset" : 0
        },
        {
            "buffer" : 0,
            "byteLength" : 351420,
            "byteOffset" : 351420
        },
        {
            "buffer" : 0,
            "byteLength" : 234280,
            "byteOffset" : 702840
        },
        {
            "buffer" : 0,
            "byteLength" : 331440,
            "byteOffset" : 937120
        },
        {
            "buffer" : 0,
            "byteLength" : 8568,
            "byteOffset" : 1268560
        },
        {
            "buffer" : 0,
            "byteLength" : 8568,
            "byteOffset" : 1277128
        },
        {
            "buffer" : 0,
            "byteLength" : 5712,
            "byteOffset" : 1285696
        },
        {
            "buffer" : 0,
            "byteLength" : 7488,
            "byteOffset" : 1291408
        }
    ],
    "buffers" : [
        {
            "byteLength" : 1298896,
            "uri" : "scene.bin"
        }
    ]
}
