{
    "asset" : {
        "generator" : "Khronos glTF Blender I/O v1.2.75",
        "version" : "2.0"
    },
    "scene" : 0,
    "scenes" : [
        {
            "name" : "Scene",
            "nodes" : [
                0
            ]
        }
    ],
    "nodes" : [
        {
            "mesh" : 0,
            "name" : "Pont",
            "rotation" : [
                0,
                0.6064677834510803,
                0,
                0.7951080799102783
            ],
            "translation" : [
                55.4412727355957,
                7.786245346069336,
                15.134865760803223
            ]
        }
    ],
    "meshes" : [
        {
            "name" : "Cube.001",
            "primitives" : [
                {
                    "attributes" : {
                        "POSITION" : 0,
                        "NORMAL" : 1,
                        "TEXCOORD_0" : 2
                    },
                    "indices" : 3
                }
            ]
        }
    ],
    "accessors" : [
        {
            "bufferView" : 0,
            "componentType" : 5126,
            "count" : 7768,
            "max" : [
                1.7121319770812988,
                22,
                0.7098288536071777
            ],
            "min" : [
                -1.7121319770812988,
                -12.000000953674316,
                -118.46501159667969
            ],
            "type" : "VEC3"
        },
        {
            "bufferView" : 1,
            "componentType" : 5126,
            "count" : 7768,
            "type" : "VEC3"
        },
        {
            "bufferView" : 2,
            "componentType" : 5126,
            "count" : 7768,
            "type" : "VEC2"
        },
        {
            "bufferView" : 3,
            "componentType" : 5123,
            "count" : 15036,
            "type" : "SCALAR"
        }
    ],
    "bufferViews" : [
        {
            "buffer" : 0,
            "byteLength" : 93216,
            "byteOffset" : 0
        },
        {
            "buffer" : 0,
            "byteLength" : 93216,
            "byteOffset" : 93216
        },
        {
            "buffer" : 0,
            "byteLength" : 62144,
            "byteOffset" : 186432
        },
        {
            "buffer" : 0,
            "byteLength" : 30072,
            "byteOffset" : 248576
        }
    ],
    "buffers" : [
        {
            "byteLength" : 278648,
            "uri" : "scene.bin"
        }
    ]
}
