{
    "asset" : {
        "generator" : "Khronos glTF Blender I/O v1.2.75",
        "version" : "2.0"
    },
    "scene" : 0,
    "scenes" : [
        {
            "name" : "Scene",
            "nodes" : [
                0
            ]
        }
    ],
    "nodes" : [
        {
            "mesh" : 0,
            "name" : "Sol",
            "scale" : [
                1,
                3.5,
                1
            ]
        }
    ],
    "materials" : [
        {
            "doubleSided" : true,
            "emissiveFactor" : [
                0,
                0,
                0
            ],
            "name" : "Stone",
            "pbrMetallicRoughness" : {
                "baseColorFactor" : [
                    0.42002442479133606,
                    0.28933393955230713,
                    0.2521764636039734,
                    1
                ],
                "metallicFactor" : 0,
                "roughnessFactor" : 0.5
            }
        },
        {
            "doubleSided" : true,
            "emissiveFactor" : [
                0,
                0,
                0
            ],
            "name" : "grass",
            "pbrMetallicRoughness" : {
                "baseColorFactor" : [
                    0.5699583888053894,
                    0.8000000715255737,
                    0.147164985537529,
                    1
                ],
                "metallicFactor" : 0,
                "roughnessFactor" : 0.5
            }
        },
        {
            "doubleSided" : true,
            "emissiveFactor" : [
                0,
                0,
                0
            ],
            "name" : "dirt",
            "pbrMetallicRoughness" : {
                "baseColorFactor" : [
                    0.2019011378288269,
                    0.09002473950386047,
                    0.07049613445997238,
                    1
                ],
                "metallicFactor" : 0,
                "roughnessFactor" : 0.5
            }
        }
    ],
    "meshes" : [
        {
            "name" : "Plane",
            "primitives" : [
                {
                    "attributes" : {
                        "POSITION" : 0,
                        "NORMAL" : 1,
                        "TEXCOORD_0" : 2
                    },
                    "indices" : 3,
                    "material" : 0
                },
                {
                    "attributes" : {
                        "POSITION" : 4,
                        "NORMAL" : 5,
                        "TEXCOORD_0" : 6
                    },
                    "indices" : 7,
                    "material" : 1
                },
                {
                    "attributes" : {
                        "POSITION" : 8,
                        "NORMAL" : 9,
                        "TEXCOORD_0" : 10
                    },
                    "indices" : 11,
                    "material" : 2
                }
            ]
        }
    ],
    "accessors" : [
        {
            "bufferView" : 0,
            "componentType" : 5126,
            "count" : 2233,
            "max" : [
                51.31885528564453,
                4.342169761657715,
                51.260379791259766
            ],
            "min" : [
                -51.322757720947266,
                -0.2823513448238373,
                -51.02924346923828
            ],
            "type" : "VEC3"
        },
        {
            "bufferView" : 1,
            "componentType" : 5126,
            "count" : 2233,
            "type" : "VEC3"
        },
        {
            "bufferView" : 2,
            "componentType" : 5126,
            "count" : 2233,
            "type" : "VEC2"
        },
        {
            "bufferView" : 3,
            "componentType" : 5123,
            "count" : 10149,
            "type" : "SCALAR"
        },
        {
            "bufferView" : 4,
            "componentType" : 5126,
            "count" : 1922,
            "max" : [
                51.01987075805664,
                4.475623607635498,
                51.1750373840332
            ],
            "min" : [
                -51.322757720947266,
                0.31123003363609314,
                -51.02924346923828
            ],
            "type" : "VEC3"
        },
        {
            "bufferView" : 5,
            "componentType" : 5126,
            "count" : 1922,
            "type" : "VEC3"
        },
        {
            "bufferView" : 6,
            "componentType" : 5126,
            "count" : 1922,
            "type" : "VEC2"
        },
        {
            "bufferView" : 7,
            "componentType" : 5123,
            "count" : 7917,
            "type" : "SCALAR"
        },
        {
            "bufferView" : 8,
            "componentType" : 5126,
            "count" : 624,
            "max" : [
                32.50991439819336,
                3.270676851272583,
                48.564701080322266
            ],
            "min" : [
                -50.53216552734375,
                0.2593922019004822,
                -50.686161041259766
            ],
            "type" : "VEC3"
        },
        {
            "bufferView" : 9,
            "componentType" : 5126,
            "count" : 624,
            "type" : "VEC3"
        },
        {
            "bufferView" : 10,
            "componentType" : 5126,
            "count" : 624,
            "type" : "VEC2"
        },
        {
            "bufferView" : 11,
            "componentType" : 5123,
            "count" : 2346,
            "type" : "SCALAR"
        }
    ],
    "bufferViews" : [
        {
            "buffer" : 0,
            "byteLength" : 26796,
            "byteOffset" : 0
        },
        {
            "buffer" : 0,
            "byteLength" : 26796,
            "byteOffset" : 26796
        },
        {
            "buffer" : 0,
            "byteLength" : 17864,
            "byteOffset" : 53592
        },
        {
            "buffer" : 0,
            "byteLength" : 20298,
            "byteOffset" : 71456
        },
        {
            "buffer" : 0,
            "byteLength" : 23064,
            "byteOffset" : 91756
        },
        {
            "buffer" : 0,
            "byteLength" : 23064,
            "byteOffset" : 114820
        },
        {
            "buffer" : 0,
            "byteLength" : 15376,
            "byteOffset" : 137884
        },
        {
            "buffer" : 0,
            "byteLength" : 15834,
            "byteOffset" : 153260
        },
        {
            "buffer" : 0,
            "byteLength" : 7488,
            "byteOffset" : 169096
        },
        {
            "buffer" : 0,
            "byteLength" : 7488,
            "byteOffset" : 176584
        },
        {
            "buffer" : 0,
            "byteLength" : 4992,
            "byteOffset" : 184072
        },
        {
            "buffer" : 0,
            "byteLength" : 4692,
            "byteOffset" : 189064
        }
    ],
    "buffers" : [
        {
            "byteLength" : 193756,
            "uri" : "scene2.bin"
        }
    ]
}
