{
    "asset" : {
        "generator" : "Khronos glTF Blender I/O v1.2.75",
        "version" : "2.0"
    },
    "scene" : 0,
    "scenes" : [
        {
            "name" : "Scene",
            "nodes" : [
                0,
                1,
                2
            ]
        }
    ],
    "nodes" : [
        {
            "name" : "Light",
            "rotation" : [
                0.16907575726509094,
                0.7558803558349609,
                -0.27217137813568115,
                0.570947527885437
            ],
            "translation" : [
                4.076245307922363,
                5.903861999511719,
                -1.0054539442062378
            ]
        },
        {
            "name" : "Camera",
            "rotation" : [
                0.483536034822464,
                0.33687159419059753,
                -0.20870360732078552,
                0.7804827094078064
            ],
            "translation" : [
                7.358891487121582,
                4.958309173583984,
                6.925790786743164
            ]
        },
        {
            "mesh" : 0,
            "name" : "biever_wip"
        }
    ],
    "materials" : [
        {
            "doubleSided" : true,
            "name" : "body",
            "pbrMetallicRoughness" : {}
        },
        {
            "doubleSided" : true,
            "name" : "teeth",
            "pbrMetallicRoughness" : {}
        }
    ],
    "meshes" : [
        {
            "name" : "OUT",
            "primitives" : [
                {
                    "attributes" : {
                        "POSITION" : 0,
                        "NORMAL" : 1,
                        "TEXCOORD_0" : 2
                    },
                    "indices" : 3,
                    "material" : 0
                },
                {
                    "attributes" : {
                        "POSITION" : 4,
                        "NORMAL" : 5,
                        "TEXCOORD_0" : 6
                    },
                    "indices" : 7,
                    "material" : 1
                }
            ]
        }
    ],
    "accessors" : [
        {
            "bufferView" : 0,
            "componentType" : 5126,
            "count" : 8440,
            "max" : [
                2.029388427734375,
                3.706620693206787,
                3.848916530609131
            ],
            "min" : [
                -2.0351219177246094,
                -0.7974090576171875,
                -6.666139602661133
            ],
            "type" : "VEC3"
        },
        {
            "bufferView" : 1,
            "componentType" : 5126,
            "count" : 8440,
            "type" : "VEC3"
        },
        {
            "bufferView" : 2,
            "componentType" : 5126,
            "count" : 8440,
            "type" : "VEC2"
        },
        {
            "bufferView" : 3,
            "componentType" : 5123,
            "count" : 40968,
            "type" : "SCALAR"
        },
        {
            "bufferView" : 4,
            "componentType" : 5126,
            "count" : 262,
            "max" : [
                0.20886993408203125,
                1.889742374420166,
                3.573636531829834
            ],
            "min" : [
                -0.12416648864746094,
                1.5177907943725586,
                3.3175392150878906
            ],
            "type" : "VEC3"
        },
        {
            "bufferView" : 5,
            "componentType" : 5126,
            "count" : 262,
            "type" : "VEC3"
        },
        {
            "bufferView" : 6,
            "componentType" : 5126,
            "count" : 262,
            "type" : "VEC2"
        },
        {
            "bufferView" : 7,
            "componentType" : 5123,
            "count" : 936,
            "type" : "SCALAR"
        }
    ],
    "bufferViews" : [
        {
            "buffer" : 0,
            "byteLength" : 101280,
            "byteOffset" : 0
        },
        {
            "buffer" : 0,
            "byteLength" : 101280,
            "byteOffset" : 101280
        },
        {
            "buffer" : 0,
            "byteLength" : 67520,
            "byteOffset" : 202560
        },
        {
            "buffer" : 0,
            "byteLength" : 81936,
            "byteOffset" : 270080
        },
        {
            "buffer" : 0,
            "byteLength" : 3144,
            "byteOffset" : 352016
        },
        {
            "buffer" : 0,
            "byteLength" : 3144,
            "byteOffset" : 355160
        },
        {
            "buffer" : 0,
            "byteLength" : 2096,
            "byteOffset" : 358304
        },
        {
            "buffer" : 0,
            "byteLength" : 1872,
            "byteOffset" : 360400
        }
    ],
    "buffers" : [
        {
            "byteLength" : 362272,
            "uri" : "scene.bin"
        }
    ]
}
